<svg width="610" height="133" viewBox="0 0 610 133" fill="none" xmlns="http://www.w3.org/2000/svg">
<path d="M52.3802 107.16C81.0362 107.16 95.7242 88.152 99.6122 72.456L81.0362 66.84C78.3002 76.344 69.8042 87.72 52.3802 87.72C35.9642 87.72 20.7002 75.768 20.7002 54.024C20.7002 30.84 36.8282 19.896 52.0922 19.896C69.8042 19.896 77.7242 30.696 80.1722 40.488L98.8922 34.584C94.8602 18.024 80.3162 0.743995 52.0922 0.743995C24.7322 0.743995 0.108188 21.48 0.108188 54.024C0.108188 86.568 23.8682 107.16 52.3802 107.16ZM144.118 89.736C134.758 89.736 126.118 82.824 126.118 69.576C126.118 56.184 134.758 49.416 144.118 49.416C153.478 49.416 162.118 56.184 162.118 69.576C162.118 82.968 153.478 89.736 144.118 89.736ZM144.118 31.992C122.95 31.992 106.966 47.688 106.966 69.576C106.966 91.32 122.95 107.16 144.118 107.16C165.286 107.16 181.27 91.32 181.27 69.576C181.27 47.688 165.286 31.992 144.118 31.992ZM215.54 105V63.528C215.54 55.752 220.436 49.56 228.788 49.56C237.428 49.56 241.316 55.32 241.316 62.952V105H260.324V63.528C260.324 55.896 265.22 49.56 273.428 49.56C282.212 49.56 285.956 55.32 285.956 62.952V105H304.532V59.064C304.532 40.056 292.004 32.136 278.9 32.136C269.54 32.136 262.052 35.304 256.436 43.944C252.836 36.312 245.06 32.136 235.412 32.136C227.636 32.136 218.564 35.88 214.676 42.792V34.152H196.388V105H215.54ZM343.087 132.36V98.088C346.543 102.84 353.743 106.728 363.535 106.728C383.551 106.728 396.943 90.888 396.943 69.432C396.943 48.408 384.991 32.568 364.255 32.568C353.599 32.568 345.679 37.32 342.511 42.792V34.152H323.935V132.36H343.087ZM378.079 69.576C378.079 82.248 370.303 89.592 360.511 89.592C350.719 89.592 342.799 82.104 342.799 69.576C342.799 57.048 350.719 49.704 360.511 49.704C370.303 49.704 378.079 57.048 378.079 69.576ZM426.075 61.512C426.507 55.032 431.979 47.544 441.915 47.544C452.859 47.544 457.467 54.456 457.755 61.512H426.075ZM459.627 79.944C457.323 86.28 452.427 90.744 443.499 90.744C433.995 90.744 426.075 83.976 425.643 74.616H476.331C476.331 74.328 476.619 71.448 476.619 68.712C476.619 45.96 463.515 31.992 441.627 31.992C423.483 31.992 406.779 46.68 406.779 69.288C406.779 93.192 423.915 107.16 443.355 107.16C460.779 107.16 472.011 96.936 475.611 84.696L459.627 79.944ZM515.317 12.984H498.037V22.92C498.037 29.256 494.581 34.152 487.093 34.152H483.493V51.144H496.309V84.12C496.309 97.8 504.949 106.008 518.773 106.008C524.389 106.008 527.845 105 529.573 104.28V88.44C528.565 88.728 525.973 89.016 523.669 89.016C518.197 89.016 515.317 87 515.317 80.808V51.144H529.573V34.152H515.317V12.984ZM559.106 61.512C559.538 55.032 565.01 47.544 574.946 47.544C585.89 47.544 590.498 54.456 590.786 61.512H559.106ZM592.658 79.944C590.354 86.28 585.458 90.744 576.53 90.744C567.026 90.744 559.106 83.976 558.674 74.616H609.362C609.362 74.328 609.65 71.448 609.65 68.712C609.65 45.96 596.546 31.992 574.658 31.992C556.514 31.992 539.81 46.68 539.81 69.288C539.81 93.192 556.946 107.16 576.386 107.16C593.81 107.16 605.042 96.936 608.642 84.696L592.658 79.944Z" fill="url(#paint0_linear)"/>
<defs>
<linearGradient id="paint0_linear" x1="-61.5156" y1="54.1233" x2="700.21" y2="54.1233" gradientUnits="userSpaceOnUse">
<stop stop-color="#677CFC"/>
<stop offset="0.990249" stop-color="#E56F6E"/>
</linearGradient>
</defs>
</svg>
