<svg width="476" height="193" viewBox="0 0 476 193" fill="none" xmlns="http://www.w3.org/2000/svg">
<rect x="17.4414" y="36.8139" width="440.44" height="136.355" fill="#A92B82" fill-opacity="0.14" stroke="#A92B82" stroke-dasharray="1 1"/>
<path d="M0 18.5V19.4915H0.5V20.4858H0V21.4801H0.5V22.4744H0V23.4688H0.5V24.4631H0V25.4574H0.5V26.4517H0V27.446H0.5V28.4403H0V29.4347H0.5V30.429H0V31.4233H0.5V32.4176H0V33.4119H0.5V34.4062H0V35.4006H0.5V36.3949H0V37.3892H0.5V38.3835H0V39.3778H0.5V40.3722H0V41.3665H0.5V42.3608H0V43.3551H0.5V44.3494H0V45.3437H0.5V46.3381H0V47.3324H0.5V48.3267H0V49.321H0.5V50.3153H0V51.3097H0.5V52.304H0V53.2983H0.5V54.2926H0V55.2869H0.5V56.2813H0V57.2756H0.5V58.2699H0V59.2642H0.5V60.2585H0V61.2529H0.5V62.2472H0V63.2415H0.5V64.2358H0V65.2301H0.5V66.2245H0V67.2188H0.5V68.2131H0V69.2074H0.5V70.2017H0V71.1961H0.5V72.1904H0V73.1847H0.5V74.179H0V75.1733H0.5V76.1677H0V77.162H0.5V78.1563H0V79.1506H0.5V80.1449H0V81.1393H0.5V82.1336H0V83.1279H0.5V84.1222H0V85.1165H0.5V86.1108H0V87.1052H0.5V88.0995H0V89.0938H0.5V90.0881H0V91.0824H0.5V92.0767H0V93.0711H0.5V94.0654H0V95.0597H0.5V96.054H0V97.0483H0.5V98.0426H0V99.0369H0.5V100.031H0V101.026H0.5V102.02H0V103.014H0.5V104.009H0V105.003H0.5V105.997H0V106.991H0.5V107.986H0V108.98H0.5V109.974H0V110.969H0.5V111.963H0V112.957H0.5V113.952H0V114.946H0.5V115.94H0V116.935H0.5V117.929H0V118.923H0.5V119.918H0V120.912H0.5V121.906H0V122.901H0.5V123.895H0V124.889H0.5V125.883H0V126.878H0.5V127.872H0V128.866H0.5V129.861H0V130.855H0.5V131.849H0V132.844H0.5V133.838H0V134.832H0.5V135.827H0V136.821H0.5V137.815H0V138.81H0.5V139.804H0V140.798H0.5V141.793H0V142.787H0.5V143.781H0V144.775H0.5V145.77H0V146.764H0.5V147.758H0V148.753H0.5V149.747H0V150.741H0.5V151.736H0V152.73H0.5V153.724H0V154.719H0.5V155.713H0V156.707H0.5V157.702H0V158.696H0.5V159.69H0V160.685H0.5V161.679H0V162.673H0.5V163.668H0V164.662H0.5V165.656H0V166.651H0.5V167.645H0V168.639H0.5V169.634H0V170.628H0.5V171.622H0V172.617H0.5V173.611H0V174.605H0.5V175.6H0V176.594H0.5V177.588H0V178.582H0.5V179.577H0V180.571H0.5V181.565H0V182.56H0.5V183.554H0V184.548H0.5V185.543H0V186.537H0.5V187.531H0V188.526H0.5V189.52H0V190.514H0.5V191.509H0V192.5H0.499285V192.503H0.5V193H1.49786V192.5H2.49643V193H3.495V192.5H4.49357V193H5.49214V192.5H6.49071V193H7.48928V192.5H8.48785V193H9.48642V192.5H10.485V193H11.4836V192.5H12.4821V193H13.4807V192.5H14.4793V193H15.4779V192.5H16.4764V193H17.475V192.5H18.4736V193H19.4721V192.5H20.4707V193H21.4693V192.5H22.4679V193H23.4664V192.5H24.465V193H25.4636V192.5H26.4621V193H27.4607V192.5H28.4593V193H29.4579V192.5H30.4564V193H31.455V192.5H32.4536V193H33.4521V192.5H34.4507V193H35.4493V192.5H36.4478V193H37.4464V192.5H38.445V193H39.4436V192.5H40.4421V193H41.4407V192.5H42.4393V193H43.4378V192.5H44.4364V193H45.435V192.5H46.4335V193H47.4321V192.5H48.4307V193H49.4292V192.5H50.4278V193H51.4264V192.5H52.425V193H53.4235V192.5H54.4221V193H55.4207V192.5H56.4192V193H57.4178V192.5H58.4164V193H59.4149V192.5H60.4135V193H61.4121V192.5H62.4106V193H63.4092V192.5H64.4078V193H65.4064V192.5H66.4049V193H67.4035V192.5H68.4021V193H69.4007V192.5H70.3992V193H71.3978V192.5H72.3964V193H73.395V192.5H74.3935V193H75.3921V192.5H76.3907V193H77.3892V192.5H78.3878V193H79.3864V192.5H80.385V193H81.3835V192.5H82.3821V193H83.3807V192.5H84.3793V193H85.3778V192.5H86.3764V193H87.375V192.5H88.3736V193H89.3721V192.5H90.3707V193H91.3693V192.5H92.3678V193H93.3664V192.5H94.365V193H95.3636V192.5H96.3621V193H97.3607V192.5H98.3593V193H99.3579V192.5H100.356V193H101.355V192.5H102.354V193H103.352V192.5H104.351V193H105.349V192.5H106.348V193H107.346V192.5H108.345V193H109.344V192.5H110.342V193H111.341V192.5H112.339V193H113.338V192.5H114.336V193H115.335V192.5H116.334V193H117.332V192.5H118.331V193H119.329V192.5H120.328V193H121.326V192.5H122.325V193H123.324V192.5H124.322V193H125.321V192.5H126.319V193H127.318V192.5H128.316V193H129.315V192.5H130.314V193H131.312V192.5H132.311V193H133.309V192.5H134.308V193H135.306V192.5H136.305V193H137.304V192.5H138.302V193H139.301V192.5H140.299V193H141.298V192.5H142.296V193H143.295V192.5H144.294V193H145.292V192.5H146.291V193H147.289V192.5H148.288V193H149.286V192.5H150.285V193H151.283V192.5H152.282V193H153.281V192.5H154.279V193H155.278V192.5H156.276V193H157.275V192.5H158.273V193H159.272V192.5H160.271V193H161.269V192.5H162.268V193H163.266V192.5H164.265V193H165.263V192.5H166.262V193H167.261V192.5H168.259V193H169.258V192.5H170.256V193H171.255V192.5H172.253V193H173.252V192.5H174.251V193H175.249V192.5H176.248V193H177.246V192.5H178.245V193H179.243V192.5H180.242V193H181.24V192.5H182.239V193H183.238V192.5H184.236V193H185.235V192.5H186.233V193H187.232V192.5H188.23V193H189.229V192.5H190.228V193H191.226V192.5H192.225V193H193.223V192.5H194.222V193H195.22V192.5H196.219V193H197.218V192.5H198.216V193H199.215V192.5H200.213V193H201.212V192.5H202.21V193H203.209V192.5H204.207V193H205.206V192.5H206.205V193H207.203V192.5H208.202V193H209.2V192.5H210.199V193H211.197V192.5H212.196V193H213.195V192.5H214.193V193H215.192V192.5H216.19V193H217.189V192.5H218.187V193H219.186V192.5H220.185V193H221.183V192.5H222.182V193H223.18V192.5H224.179V193H225.177V192.5H226.176V193H227.174V192.5H228.173V193H229.172V192.5H230.17V193H231.169V192.5H232.167V193H233.166V192.5H234.164V193H235.163V192.5H236.162V193H237.16V192.5H238.159V193H239.157V192.5H240.156V193H241.154V192.5H242.153V193H243.152V192.5H244.15V193H245.149V192.5H246.147V193H247.146V192.5H248.144V193H249.143V192.5H250.142V193H251.14V192.5H252.139V193H253.137V192.5H254.136V193H255.134V192.5H256.133V193H257.131V192.5H258.13V193H259.129V192.5H260.127V193H261.126V192.5H262.124V193H263.123V192.5H264.121V193H265.12V192.5H266.119V193H267.117V192.5H268.116V193H269.114V192.5H270.113V193H271.111V192.5H272.11V193H273.109V192.5H274.107V193H275.106V192.5H276.104V193H277.103V192.5H278.101V193H279.1V192.5H280.098V193H281.097V192.5H282.096V193H283.094V192.5H284.093V193H285.091V192.5H286.09V193H287.088V192.5H288.087V193H289.086V192.5H290.084V193H291.083V192.5H292.081V193H293.08V192.5H294.078V193H295.077V192.5H296.076V193H297.074V192.5H298.073V193H299.071V192.5H300.07V193H301.068V192.5H302.067V193H303.065V192.5H304.064V193H305.063V192.5H306.061V193H307.06V192.5H308.058V193H309.057V192.5H310.055V193H311.054V192.5H312.053V193H313.051V192.5H314.05V193H315.048V192.5H316.047V193H317.045V192.5H318.044V193H319.043V192.5H320.041V193H321.04V192.5H322.038V193H323.037V192.5H324.035V193H325.034V192.5H326.033V193H327.031V192.5H328.03V193H329.028V192.5H330.027V193H331.025V192.5H332.024V193H333.022V192.5H334.021V193H335.02V192.5H336.018V193H337.017V192.5H338.015V193H339.014V192.5H340.012V193H341.011V192.5H342.01V193H343.008V192.5H344.007V193H345.005V192.5H346.004V193H347.002V192.5H348.001V193H349V192.5H349.998V193H350.997V192.5H351.995V193H352.994V192.5H353.992V193H354.991V192.5H355.989V193H356.988V192.5H357.987V193H358.985V192.5H359.984V193H360.982V192.5H361.981V193H362.979V192.5H363.978V193H364.977V192.5H365.975V193H366.974V192.5H367.972V193H368.971V192.5H369.969V193H370.968V192.5H371.967V193H372.965V192.5H373.964V193H374.962V192.5H375.961V193H376.959V192.5H377.958V193H378.956V192.5H379.955V193H380.954V192.5H381.952V193H382.951V192.5H383.949V193H384.948V192.5H385.946V193H386.945V192.5H387.944V193H388.942V192.5H389.941V193H390.939V192.5H391.938V193H392.936V192.5H393.935V193H394.934V192.5H395.932V193H396.931V192.5H397.929V193H398.928V192.5H399.926V193H400.925V192.5H401.923V193H402.922V192.5H403.921V193H404.919V192.5H405.918V193H406.916V192.5H407.915V193H408.913V192.5H409.912V193H410.911V192.5H411.909V193H412.908V192.5H413.906V193H414.905V192.5H415.903V193H416.902V192.5H417.901V193H418.899V192.5H419.898V193H420.896V192.5H421.895V193H422.893V192.5H423.892V193H424.891V192.5H425.889V193H426.888V192.5H427.886V193H428.885V192.5H429.883V193H430.882V192.5H431.88V193H432.879V192.5H433.878V193H434.876V192.5H435.875V193H436.873V192.5H437.872V193H438.87V192.5H439.869V193H440.868V192.5H441.866V193H442.865V192.5H443.863V193H444.862V192.5H445.86V193H446.859V192.5H447.858V193H448.856V192.5H449.855V193H450.853V192.5H451.852V193H452.85V192.5H453.849V193H454.847V192.5H455.846V193H456.845V192.5H457.843V193H458.842V192.5H459.84V193H460.839V192.5H461.837V193H462.836V192.5H463.835V193H464.833V192.5H465.832V193H466.83V192.5H467.829V193H468.827V192.5H469.826V193H470.825V192.5H471.823V193H472.822V192.5H473.82V193H474.819V192.5H475.32V191.509H474.82V190.514H475.32V189.52H474.82V188.526H475.32V187.531H474.82V186.537H475.32V185.543H474.82V184.548H475.32V183.554H474.82V182.56H475.32V181.565H474.82V180.571H475.32V179.577H474.82V178.582H475.32V177.588H474.82V176.594H475.32V175.599H474.82V174.605H475.32V173.611H474.82V172.616H475.32V171.622H474.82V170.628H475.32V169.634H474.82V168.639H475.32V167.645H474.82V166.651H475.32V165.656H474.82V164.662H475.32V163.668H474.82V162.673H475.32V161.679H474.82V160.685H475.32V159.69H474.82V158.696H475.32V157.702H474.82V156.707H475.32V155.713H474.82V154.719H475.32V153.724H474.82V152.73H475.32V151.736H474.82V150.741H475.32V149.747H474.82V148.753H475.32V147.758H474.82V146.764H475.32V145.77H474.82V144.776H475.32V143.781H474.82V142.787H475.32V141.793H474.82V140.798H475.32V139.804H474.82V138.81H475.32V137.815H474.82V136.821H475.32V135.827H474.82V134.832H475.32V133.838H474.82V132.844H475.32V131.849H474.82V130.855H475.32V129.861H474.82V128.866H475.32V127.872H474.82V126.878H475.32V125.883H474.82V124.889H475.32V123.895H474.82V122.901H475.32V121.906H474.82V120.912H475.32V119.918H474.82V118.923H475.32V117.929H474.82V116.935H475.32V115.94H474.82V114.946H475.32V113.952H474.82V112.957H475.32V111.963H474.82V110.969H475.32V109.974H474.82V108.98H475.32V107.986H474.82V106.991H475.32V105.997H474.82V105.003H475.32V104.009H474.82V103.014H475.32V102.02H474.82V101.026H475.32V100.031H474.82V99.0369H475.32V98.0426H474.82V97.0483H475.32V96.054H474.82V95.0597H475.32V94.0654H474.82V93.071H475.32V92.0767H474.82V91.0824H475.32V90.0881H474.82V89.0938H475.32V88.0995H474.82V87.1051H475.32V86.1108H474.82V85.1165H475.32V84.1222H474.82V83.1279H475.32V82.1336H474.82V81.1393H475.32V80.1449H474.82V79.1506H475.32V78.1563H474.82V77.162H475.32V76.1677H474.82V75.1734H475.32V74.179H474.82V73.1847H475.32V72.1904H474.82V71.1961H475.32V70.2018H474.82V69.2075H475.32V68.2131H474.82V67.2188H475.32V66.2245H474.82V65.2302H475.32V64.2359H474.82V63.2415H475.32V62.2472H474.82V61.2529H475.32V60.2586H474.82V59.2643H475.32V58.2699H474.82V57.2756H475.32V56.2813H474.82V55.287H475.32V54.2926H474.82V53.2983H475.32V52.304H474.82V51.3097H475.32V50.3153H474.82V49.321H475.32V48.3267H474.82V47.3324H475.32V46.338H474.82V45.3437H475.32V44.3494H474.82V43.3551H475.32V42.3607H474.82V41.3664H475.32V40.3721H474.82V39.3778H475.32V38.3835H474.82V37.3891H475.32V36.3948H474.82V35.4005H475.32V34.4062H474.82V33.4118H475.32V32.4175H474.82V31.4232H475.32V30.4289H474.82V29.4345H475.32V28.4402H474.82V27.4459H475.32V26.4516H474.82V25.4572H475.32V24.4629H474.82V23.4686H475.32V22.4743H474.82V21.4799H475.32V20.4856H474.82V19.4913H475.32V18.5H474.82V18.497H474.82L0 18.5ZM0 18.5H0.500982V18M0 18.5L0.500982 18M0.500982 18H1.49955V18.5H2.49811V18H3.49667V18.5H4.49524V18H5.4938V18.5H6.49236V18H7.49093V18.5H8.48949V18H9.48806V18.5H10.4866V18H11.4852V18.5H12.4838V18H13.4823V18.5H14.4809V18H15.4795V18.5H16.478V18H17.4766V18.5H18.4752V18H19.4737V18.5H20.4723V18H21.4708V18.5H22.4694V18H23.468V18.5H24.4665V18H25.4651V18.5H26.4637V18H27.4623V18.5H28.4608V18H29.4594V18.5H30.458V18H31.4565V18.5H32.4551V18H33.4536V18.5H34.4522V18H35.4508V18.5H36.4493V18H37.4479V18.5H38.4465V18H39.445V18.5H40.4436V18H41.4422V18.5H42.4407V18H43.4393V18.5H44.4379V18H45.4364V18.5H46.435V18H47.4336V18.5H48.4321V18H49.4307V18.5H50.4293V18H51.4278V18.5H52.4264V18H53.4249V18.5H54.4235V18H55.4221V18.5H56.4207V18H57.4192V18.5H58.4178V18H59.4164V18.5H60.4149V18H61.4135V18.5H62.412V18H63.4106V18.5H64.4092V18H65.4077V18.5H66.4063V18H67.4049V18.5H68.4034V18H69.402V18.5H70.4006V18H71.3992V18.5H72.3977V18H73.3963V18.5H74.3948V18H75.3934V18.5H76.392V18H77.3905V18.5H78.3891V18H79.3877V18.5H80.3862V18H81.3848V18.5H82.3834V18H83.3819V18.5H84.3805V18H85.379V18.5H86.3776V18H87.3762V18.5H88.3748V18H89.3733V18.5H90.3719V18H91.3705V18.5H92.369V18H93.3676V18.5H94.3661V18H95.3647V18.5H96.3633V18H97.3618V18.5H98.3604V18H99.359V18.5H100.358V18H101.356V18.5H102.355V18H103.353V18.5H104.352V18H105.35V18.5H106.349V18H107.348V18.5H108.346V18H109.345V18.5H110.343V18H111.342V18.5H112.34V18H113.339V18.5H114.337V18H115.336V18.5H116.335V18H117.333V18.5H118.332V18H119.33V18.5H120.329V18H121.327V18.5H122.326V18H123.325V18.5H124.323V18H125.322V18.5H126.32V18H127.319V18.5H128.317V18H129.316V18.5H130.314V18H131.313V18.5H132.312V18H133.31V18.5H134.309V18H135.307V18.5H136.306V18H137.304V18.5H138.303V18H139.302V18.5H140.3V18H141.299V18.5H142.297V18H143.296V18.5H144.294V18H145.293V18.5H146.292V18H147.29V18.5H148.289V18H149.287V18.5H150.286V18H151.284V18.5H152.283V18H153.282V18.5H154.28V18H155.279V18.5H156.277V18H157.276V18.5H158.274V18H159.273V18.5H160.271V18H161.27V18.5H162.269V18H163.267V18.5H164.266V18H165.264V18.5H166.263V18H167.261V18.5H168.26V18H169.259V18.5H170.257V18H171.256V18.5H172.254V18H173.253V18.5H174.251V18H175.25V18.5H176.249V18H177.247V18.5H178.246V18H179.244V18.5H180.243V18H181.241V18.5H182.24V18H183.238V18.5H184.237V18H185.236V18.5H186.234V18H187.233V18.5H188.231V18H189.23V18.5H190.228V18H191.227V18.5H192.226V18H193.224V18.5H194.223V18H195.221V18.5H196.22V18H197.218V18.5H198.217V18H199.216V18.5H200.214V18H201.213V18.5H202.211V18H203.21V18.5H204.208V18H205.207V18.5H206.206V18H207.204V18.5H208.203V18H209.201V18.5H210.2V18H211.198V18.5H212.197V18H213.195V18.5H214.194V18H215.193V18.5H216.191V18H217.19V18.5H218.188V18H219.187V18.5H220.185V18H221.184V18.5H222.183V18H223.181V18.5H224.18V18H225.178V18.5H226.177V18H227.175V18.5H228.174V18H229.173V18.5H230.171V18H231.17V18.5H232.168V18H233.167V18.5H234.165V18H235.164V18.5H236.162V18H237.161V18.5H238.16V18H239.158V18.5H240.157V18H241.155V18.5H242.154V18H243.152V18.5H244.151V18H245.15V18.5H246.148V18H247.147V18.5H248.145V18H249.144V18.5H250.142V18H251.141V18.5H252.14V18H253.138V18.5H254.137V18H255.135V18.5H256.134V18H257.132V18.5H258.131V18H259.129V18.5H260.128V18H261.127V18.5H262.125V18H263.124V18.5H264.122V18H265.121V18.5H266.119V18H267.118V18.5H268.117V18H269.115V18.5H270.114V18H271.112V18.5H272.111V18H273.109V18.5H274.108V18H275.107V18.5H276.105V18H277.104V18.5H278.102V18H279.101V18.5H280.099V18H281.098V18.5H282.096V18H283.095V18.5H284.094V18H285.092V18.5H286.091V18H287.089V18.5H288.088V18H289.086V18.5H290.085V18H291.084V18.5H292.082V18H293.081V18.5H294.079V18H295.078V18.5H296.076V18H297.075V18.5H298.074V18H299.072V18.5H300.071V18H301.069V18.5H302.068V18H303.066V18.5H304.065V18H305.064V18.5H306.062V18H307.061V18.5H308.059V18H309.058V18.5H310.056V18H311.055V18.5H312.053V18H313.052V18.5H314.051V18H315.049V18.5H316.048V18H317.046V18.5H318.045V18H319.043V18.5H320.042V18H321.041V18.5H322.039V18H323.038V18.5H324.036V18H325.035V18.5H326.033V18H327.032V18.5H328.031V18H329.029V18.5H330.028V18H331.026V18.5H332.025V18H333.023V18.5H334.022V18H335.02V18.5H336.019V18H337.018V18.5H338.016V18H339.015V18.5H340.013V18H341.012V18.5H342.01V18H343.009V18.5H344.008V18H345.006V18.5H346.005V18H347.003V18.5H348.002V18H349V18.5H349.999V18H350.998V18.5H351.996V18H352.995V18.5H353.993V18H354.992V18.5H355.99V18H356.989V18.5H357.988V18H358.986V18.5H359.985V18H360.983V18.5H361.982V18H362.98V18.5H363.979V18H364.978V18.5H365.976V18H366.975V18.5H367.973V18H368.972V18.5H369.97V18H370.969V18.5H371.968V18H372.966V18.5H373.965V18H374.963V18.5H375.962V18H376.96V18.5H377.959V18H378.958V18.5H379.956V18H380.955V18.5H381.953V18H382.952V18.5H383.951V18H384.949V18.5H385.948V18H386.946V18.5H387.945V18H388.943V18.5H389.942V18H390.941V18.5H391.939V18H392.938V18.5H393.936V18H394.935V18.5H395.933V18H396.932V18.5H397.931V18H398.929V18.5H399.928V18H400.926V18.5H401.925V18H402.923V18.5H403.922V18H404.921V18.5H405.919V18H406.918V18.5H407.916V18H408.915V18.5H409.913V18H410.912V18.5H411.911V18H412.909V18.5H413.908V18H414.906V18.5H415.905V18H416.903V18.5H417.902V18H418.901V18.5H419.899V18H420.898V18.5H421.896V18H422.895V18.5H423.893V18H424.892V18.5H425.891V18H426.889V18.5H427.888V18H428.886V18.5H429.885V18H430.883V18.5H431.882V18H432.88V18.5H433.879V18H434.878V18.5H435.876V18H436.875V18.5H437.873V18H438.872V18.5H439.87V18H440.869V18.5H441.868V18H442.866V18.5H443.865V18H444.863V18.5H445.862V18H446.86V18.5H447.859V18H448.858V18.5H449.856V18H450.855V18.5H451.853V18H452.852V18.5H453.85V18H454.849V18.5H455.848V18H456.846V18.5H457.845V18H458.843V18.5H459.842V18H460.84V18.5H461.839V18H462.838V18.5H463.836V18H464.835V18.5H465.833V18H466.832V18.5H467.83V18H468.829V18.5H469.828V18H470.826V18.5H471.825V18H472.823M0.500982 18H472.823M472.823 18V18.5H473.822V18H474.82H472.823Z" fill="#A92B82" fill-opacity="0.14" stroke="#A92B82" stroke-dasharray="1 1"/>
<line x1="238.658" y1="173.669" x2="238.658" y2="191.983" stroke="#A92B82" stroke-dasharray="1 1"/>
<line x1="238.658" y1="18" x2="238.658" y2="36.314" stroke="#A92B82" stroke-dasharray="1 1"/>
<line x1="17.9375" y1="106" x2="1.99386" y2="106" stroke="#A92B82" stroke-dasharray="1 1"/>
<line x1="474.324" y1="106" x2="458.381" y2="106" stroke="#A92B82" stroke-dasharray="1 1"/>
<path d="M54.376 124.568C58.504 124.568 62.44 123.944 66.184 122.696C69.928 121.352 73.192 119.336 75.976 116.648C78.76 113.96 80.968 110.6 82.6 106.568C84.232 102.44 85.048 97.592 85.048 92.024C85.048 86.456 84.232 81.656 82.6 77.624C80.968 73.496 78.76 70.088 75.976 67.4C73.288 64.712 70.072 62.696 66.328 61.352C62.584 60.008 58.648 59.336 54.52 59.336H38.536V124.568H54.376ZM18.664 143V40.904H55.24C62.536 40.904 69.256 42.056 75.4 44.36C81.544 46.664 86.824 50.024 91.24 54.44C95.752 58.76 99.256 64.088 101.752 70.424C104.344 76.76 105.64 83.96 105.64 92.024C105.64 100.088 104.344 107.288 101.752 113.624C99.256 119.96 95.752 125.288 91.24 129.608C86.728 133.928 81.4 137.24 75.256 139.544C69.112 141.848 62.392 143 55.096 143H18.664ZM167.497 99.512C167.401 97.784 167.017 96.104 166.345 94.472C165.769 92.744 164.809 91.256 163.465 90.008C162.217 88.664 160.585 87.608 158.569 86.84C156.649 85.976 154.345 85.544 151.657 85.544C149.161 85.544 146.953 85.976 145.033 86.84C143.113 87.704 141.481 88.808 140.137 90.152C138.793 91.496 137.737 92.984 136.969 94.616C136.297 96.248 135.913 97.88 135.817 99.512H167.497ZM185.353 122.696C184.489 125.768 183.097 128.696 181.177 131.48C179.353 134.168 177.097 136.52 174.409 138.536C171.721 140.552 168.553 142.136 164.905 143.288C161.353 144.536 157.417 145.16 153.097 145.16C148.201 145.16 143.545 144.344 139.129 142.712C134.713 140.984 130.825 138.488 127.465 135.224C124.105 131.96 121.417 127.976 119.401 123.272C117.481 118.568 116.521 113.24 116.521 107.288C116.521 101.624 117.481 96.488 119.401 91.88C121.321 87.272 123.865 83.384 127.033 80.216C130.297 76.952 134.041 74.456 138.265 72.728C142.489 70.904 146.857 69.992 151.369 69.992C162.409 69.992 171.001 73.256 177.145 79.784C183.289 86.312 186.361 95.288 186.361 106.712C186.361 108.056 186.313 109.352 186.217 110.6C186.121 111.752 186.073 112.424 186.073 112.616H135.385C135.481 114.92 136.009 117.08 136.969 119.096C138.025 121.016 139.321 122.696 140.857 124.136C142.489 125.576 144.361 126.728 146.473 127.592C148.585 128.36 150.841 128.744 153.241 128.744C157.753 128.744 161.257 127.736 163.753 125.72C166.345 123.704 168.217 121.112 169.369 117.944L185.353 122.696ZM211.811 119.672C212.003 122.456 213.155 124.952 215.267 127.16C217.379 129.368 220.547 130.472 224.771 130.472C227.939 130.472 230.291 129.8 231.827 128.456C233.363 127.016 234.131 125.336 234.131 123.416C234.131 121.784 233.555 120.392 232.403 119.24C231.251 117.992 229.283 117.08 226.499 116.504L217.139 114.344C210.227 112.808 205.187 110.168 202.019 106.424C198.851 102.584 197.267 98.168 197.267 93.176C197.267 90.008 197.939 87.032 199.283 84.248C200.627 81.368 202.451 78.92 204.755 76.904C207.155 74.792 209.939 73.112 213.107 71.864C216.371 70.616 219.923 69.992 223.763 69.992C228.755 69.992 232.979 70.712 236.435 72.152C239.891 73.496 242.675 75.224 244.787 77.336C246.995 79.448 248.627 81.704 249.683 84.104C250.739 86.408 251.363 88.52 251.555 90.44L235.571 94.04C235.379 92.984 235.043 91.928 234.563 90.872C234.179 89.72 233.507 88.664 232.547 87.704C231.587 86.744 230.387 85.976 228.947 85.4C227.603 84.824 225.923 84.536 223.907 84.536C221.411 84.536 219.251 85.208 217.427 86.552C215.699 87.896 214.835 89.576 214.835 91.592C214.835 93.32 215.411 94.712 216.563 95.768C217.811 96.824 219.395 97.544 221.315 97.928L231.395 100.088C238.403 101.528 243.635 104.216 247.091 108.152C250.643 112.088 252.419 116.648 252.419 121.832C252.419 124.712 251.843 127.544 250.691 130.328C249.635 133.112 247.955 135.608 245.651 137.816C243.347 140.024 240.467 141.8 237.011 143.144C233.555 144.488 229.523 145.16 224.915 145.16C219.539 145.16 215.027 144.392 211.379 142.856C207.731 141.32 204.755 139.448 202.451 137.24C200.147 135.032 198.419 132.68 197.267 130.184C196.211 127.592 195.587 125.288 195.395 123.272L211.811 119.672ZM267.818 143V72.152H286.97V143H267.818ZM265.514 48.968C265.514 45.608 266.666 42.776 268.97 40.472C271.274 38.168 274.058 37.016 277.322 37.016C280.682 37.016 283.466 38.168 285.674 40.472C287.978 42.776 289.13 45.608 289.13 48.968C289.13 52.136 287.978 54.872 285.674 57.176C283.466 59.48 280.682 60.632 277.322 60.632C274.058 60.632 271.274 59.48 268.97 57.176C266.666 54.872 265.514 52.136 265.514 48.968ZM319.714 142.28C320.386 146.216 322.162 149.432 325.042 151.928C327.922 154.424 331.666 155.672 336.274 155.672C342.322 155.672 346.978 154.088 350.242 150.92C353.506 147.848 355.138 142.856 355.138 135.944V130.76C353.698 133.064 351.346 135.176 348.082 137.096C344.818 138.92 340.594 139.832 335.41 139.832C330.706 139.832 326.338 138.968 322.306 137.24C318.274 135.512 314.77 133.112 311.794 130.04C308.914 126.968 306.61 123.368 304.882 119.24C303.25 115.016 302.434 110.408 302.434 105.416C302.434 100.712 303.25 96.296 304.882 92.168C306.514 87.944 308.77 84.248 311.65 81.08C314.53 77.912 317.986 75.416 322.018 73.592C326.05 71.768 330.514 70.856 335.41 70.856C341.074 70.856 345.538 71.864 348.802 73.88C352.066 75.896 354.322 78.104 355.57 80.504V72.152H374.002V135.368C374.002 140.264 373.282 144.92 371.842 149.336C370.498 153.848 368.338 157.784 365.362 161.144C362.386 164.6 358.546 167.336 353.842 169.352C349.138 171.464 343.474 172.52 336.85 172.52C331.954 172.52 327.49 171.8 323.458 170.36C319.522 169.016 316.066 167.144 313.09 164.744C310.114 162.44 307.714 159.704 305.89 156.536C304.066 153.464 302.914 150.248 302.434 146.888L319.714 142.28ZM338.722 123.416C343.618 123.416 347.602 121.784 350.674 118.52C353.842 115.256 355.426 110.888 355.426 105.416C355.426 99.944 353.794 95.624 350.53 92.456C347.266 89.192 343.33 87.56 338.722 87.56C336.322 87.56 334.066 87.992 331.954 88.856C329.938 89.624 328.162 90.824 326.626 92.456C325.09 93.992 323.89 95.864 323.026 98.072C322.162 100.28 321.73 102.728 321.73 105.416C321.73 110.984 323.314 115.4 326.482 118.664C329.65 121.832 333.73 123.416 338.722 123.416ZM412.548 143H393.396V72.152H411.972V80.936C414.18 77.288 417.156 74.6 420.9 72.872C424.74 71.144 428.58 70.28 432.42 70.28C436.836 70.28 440.628 71.048 443.796 72.584C447.06 74.024 449.748 75.992 451.86 78.488C453.972 80.984 455.508 83.96 456.468 87.416C457.524 90.872 458.052 94.52 458.052 98.36V143H438.9V101.672C438.9 97.64 437.844 94.28 435.732 91.592C433.716 88.904 430.404 87.56 425.796 87.56C421.572 87.56 418.308 89 416.004 91.88C413.7 94.664 412.548 98.12 412.548 102.248V143Z" fill="url(#paint0_linear)"/>
<defs>
<linearGradient id="paint0_linear" x1="-34.2121" y1="92.1233" x2="531.256" y2="92.1233" gradientUnits="userSpaceOnUse">
<stop stop-color="#677CFC"/>
<stop offset="0.990249" stop-color="#E56F6E"/>
</linearGradient>
</defs>
</svg>
