<svg width="224" height="157" viewBox="0 0 224 157" fill="none" xmlns="http://www.w3.org/2000/svg">
<rect x="96" y="5" width="128" height="152" rx="12" fill="#F8F8F8" fill-opacity="0.08"/>
<path d="M18.96 94.68L21.4576 94.5714L21.3278 91.5853L18.4117 92.2409L18.96 94.68ZM20.16 99.84L17.8802 100.866L17.8902 100.888L17.9007 100.91L20.16 99.84ZM23.04 103.92L21.2722 105.688L21.3007 105.716L21.3301 105.744L23.04 103.92ZM27.48 106.8L26.4952 109.098L26.5422 109.118L26.59 109.136L27.48 106.8ZM42.6 104.4L44.2463 106.281L44.2503 106.278L42.6 104.4ZM45.36 89.28L43.0621 90.2648L43.0911 90.3323L43.1239 90.398L45.36 89.28ZM42.36 85.2L40.7137 87.0814L40.7481 87.1115L40.7835 87.1403L42.36 85.2ZM37.92 82.8L37.1294 85.1717L37.181 85.1889L37.2332 85.2038L37.92 82.8ZM25.68 83.52L24.562 81.2839L24.5442 81.2928L24.5266 81.302L25.68 83.52ZM20.76 87.24L19.8315 89.5612L21.4619 90.2133L22.6285 88.9009L20.76 87.24ZM17.88 86.28L16.9739 88.61L17.0497 88.6395L17.1272 88.664L17.88 86.28ZM8.4 83.04L7.60943 85.4117L7.62825 85.418L7.64717 85.424L8.4 83.04ZM5.64 82.08L3.20427 81.5168L2.72138 83.6051L4.71152 84.4012L5.64 82.08ZM14.88 42.12V39.62H12.8921L12.4443 41.5568L14.88 42.12ZM58.8 42.12H61.3V39.62H58.8V42.12ZM58.8 56.4V58.9H61.3V56.4H58.8ZM26.16 56.4V53.9H24.1576L23.7203 55.8541L26.16 56.4ZM22.32 73.56L19.8803 73.0141L18.0825 81.0481L24.0441 75.3703L22.32 73.56ZM28.68 69.96L27.9343 67.5738L27.9343 67.5738L28.68 69.96ZM47.04 70.56L46.1622 72.9008L46.197 72.9139L46.2321 72.9259L47.04 70.56ZM55.44 75.6L53.7035 77.3985L53.735 77.4289L53.7676 77.4582L55.44 75.6ZM60.96 83.76L58.6311 84.6689L58.6446 84.7036L58.6592 84.7379L60.96 83.76ZM60.96 105.12L58.6506 104.162L58.6506 104.162L60.96 105.12ZM55.08 113.76L56.8195 115.556L56.8195 115.556L55.08 113.76ZM45.6 119.76L46.511 122.088L46.524 122.083L46.537 122.078L45.6 119.76ZM21.48 120L20.579 122.332L20.6022 122.341L20.6256 122.349L21.48 120ZM12.24 114.72L10.5937 116.601L10.6249 116.629L10.6569 116.655L12.24 114.72ZM6.12 107.04L3.90904 108.207L6.12 107.04ZM3.48 98.16L2.93167 95.7209L0.817186 96.1962L0.987755 98.3568L3.48 98.16ZM16.4624 94.7886C16.5554 96.9294 17.0237 98.9625 17.8802 100.866L22.4398 98.8141C21.8563 97.5175 21.5246 96.1106 21.4576 94.5714L16.4624 94.7886ZM17.9007 100.91C18.7444 102.692 19.8715 104.287 21.2722 105.688L24.8078 102.152C23.8085 101.153 23.0156 100.028 22.4193 98.7698L17.9007 100.91ZM21.3301 105.744C22.8312 107.151 24.5591 108.268 26.4952 109.098L28.4648 104.502C27.0409 103.892 25.8088 103.089 24.7499 102.096L21.3301 105.744ZM26.59 109.136C28.5951 109.9 30.7829 110.26 33.12 110.26V105.26C31.2971 105.26 29.7249 104.98 28.37 104.464L26.59 109.136ZM33.12 110.26C37.4169 110.26 41.1814 108.963 44.2463 106.281L40.9537 102.519C38.8986 104.317 36.3431 105.26 33.12 105.26V110.26ZM44.2503 106.278C47.4964 103.425 49.06 99.5863 49.06 95.04H44.06C44.06 98.3337 42.9836 100.735 40.9497 102.522L44.2503 106.278ZM49.06 95.04C49.06 92.5075 48.6078 90.1855 47.5961 88.162L43.1239 90.398C43.7122 91.5745 44.06 93.0925 44.06 95.04H49.06ZM47.6579 88.2952C46.7959 86.284 45.5637 84.5818 43.9365 83.2597L40.7835 87.1403C41.7163 87.8982 42.4841 88.916 43.0621 90.2648L47.6579 88.2952ZM44.0063 83.3186C42.4412 81.9491 40.6313 80.9746 38.6068 80.3962L37.2332 85.2038C38.5687 85.5854 39.7188 86.2109 40.7137 87.0814L44.0063 83.3186ZM38.7106 80.4283C36.7773 79.7839 34.7904 79.46 32.76 79.46V84.46C34.2496 84.46 35.7027 84.6961 37.1294 85.1717L38.7106 80.4283ZM32.76 79.46C29.7847 79.46 27.0335 80.0482 24.562 81.2839L26.798 85.7561C28.4865 84.9118 30.4553 84.46 32.76 84.46V79.46ZM24.5266 81.302C22.3014 82.4591 20.4052 83.8762 18.8915 85.5791L22.6285 88.9009C23.6748 87.7238 25.0586 86.6609 26.8334 85.738L24.5266 81.302ZM21.6885 84.9188C21.1834 84.7168 20.1244 84.3671 18.6328 83.896L17.1272 88.664C18.6756 89.1529 19.5366 89.4432 19.8315 89.5612L21.6885 84.9188ZM18.7861 83.95C17.3029 83.3732 15.7039 82.7994 13.9906 82.2283L12.4094 86.9717C14.0561 87.5206 15.5771 88.0668 16.9739 88.61L18.7861 83.95ZM13.9906 82.2283C12.2994 81.6646 10.6867 81.1404 9.15283 80.656L7.64717 85.424C9.15327 85.8996 10.7406 86.4154 12.4094 86.9717L13.9906 82.2283ZM9.19057 80.6683C7.7307 80.1817 6.88642 79.886 6.56848 79.7588L4.71152 84.4012C5.19358 84.594 6.1893 84.9383 7.60943 85.4117L9.19057 80.6683ZM8.07573 82.6432L17.3157 42.6832L12.4443 41.5568L3.20427 81.5168L8.07573 82.6432ZM14.88 44.62H58.8V39.62H14.88V44.62ZM56.3 42.12V56.4H61.3V42.12H56.3ZM58.8 53.9H26.16V58.9H58.8V53.9ZM23.7203 55.8541L19.8803 73.0141L24.7597 74.1059L28.5997 56.9459L23.7203 55.8541ZM24.0441 75.3703C25.4062 74.0732 27.1746 73.0497 29.4257 72.3462L27.9343 67.5738C25.0654 68.4703 22.5938 69.8468 20.5959 71.7497L24.0441 75.3703ZM29.4257 72.3462C31.7559 71.618 34.0647 71.26 36.36 71.26V66.26C33.5353 66.26 30.7241 66.702 27.9343 67.5738L29.4257 72.3462ZM36.36 71.26C40.0237 71.26 43.2809 71.8203 46.1622 72.9008L47.9178 68.2192C44.3991 66.8997 40.5363 66.26 36.36 66.26V71.26ZM46.2321 72.9259C49.1911 73.9363 51.667 75.4322 53.7035 77.3985L57.1765 73.8015C54.573 71.2878 51.4489 69.4237 47.8479 68.1941L46.2321 72.9259ZM53.7676 77.4582C55.8521 79.3343 57.4798 81.7187 58.6311 84.6689L63.2889 82.8511C61.8802 79.2413 59.8279 76.1857 57.1124 73.7418L53.7676 77.4582ZM58.6592 84.7379C59.8646 87.5741 60.5 90.9113 60.5 94.8H65.5C65.5 90.3687 64.7754 86.3459 63.2608 82.7821L58.6592 84.7379ZM60.5 94.8C60.5 98.0761 59.883 101.19 58.6506 104.162L63.2694 106.078C64.757 102.49 65.5 98.7239 65.5 94.8H60.5ZM58.6506 104.162C57.4219 107.126 55.6563 109.721 53.3405 111.964L56.8195 115.556C59.6237 112.839 61.7781 109.674 63.2694 106.078L58.6506 104.162ZM53.3405 111.964C51.0416 114.191 48.1653 116.026 44.663 117.442L46.537 122.078C50.5547 120.454 53.9984 118.289 56.8195 115.556L53.3405 111.964ZM44.689 117.432C41.3451 118.74 37.5016 119.42 33.12 119.42V124.42C38.0184 124.42 42.4949 123.66 46.511 122.088L44.689 117.432ZM33.12 119.42C29.1333 119.42 25.5469 118.819 22.3344 117.651L20.6256 122.349C24.4531 123.741 28.6267 124.42 33.12 124.42V119.42ZM22.381 117.668C19.0819 116.393 16.2376 114.761 13.8231 112.785L10.6569 116.655C13.5224 118.999 16.8381 120.887 20.579 122.332L22.381 117.668ZM13.8863 112.839C11.5462 110.791 9.70175 108.47 8.33096 105.873L3.90904 108.207C5.57825 111.37 7.81376 114.169 10.5937 116.601L13.8863 112.839ZM8.33096 105.873C6.95882 103.273 6.18369 100.641 5.97225 97.9632L0.987755 98.3568C1.25631 101.759 2.24118 105.047 3.90904 108.207L8.33096 105.873ZM4.02833 100.599L19.5083 97.1191L18.4117 92.2409L2.93167 95.7209L4.02833 100.599ZM88.5338 92.4L86.0759 92.8573L86.0779 92.8678L88.5338 92.4ZM91.7738 100.92L93.8937 99.595L93.8796 99.5723L93.8649 99.5499L91.7738 100.92ZM96.4538 105.6L95.1288 107.72L95.1611 107.74L95.1941 107.759L96.4538 105.6ZM110.614 105.6L111.914 107.735L111.947 107.715L111.979 107.694L110.614 105.6ZM115.174 100.92L113.116 99.5007L113.084 99.5471L113.054 99.595L115.174 100.92ZM118.534 92.4L120.99 92.8678L120.992 92.8573L118.534 92.4ZM118.534 69.96L116.076 70.4173L116.078 70.4278L118.534 69.96ZM115.174 61.32L113.054 62.645L113.084 62.6929L113.116 62.7393L115.174 61.32ZM110.614 56.76L109.248 58.854L109.281 58.8753L109.314 58.8955L110.614 56.76ZM96.4538 56.76L97.7134 58.9194L97.7464 58.9002L97.7788 58.88L96.4538 56.76ZM91.7738 61.32L93.8649 62.6901L93.8796 62.6677L93.8937 62.645L91.7738 61.32ZM88.5338 69.96L90.9896 70.4278L90.9916 70.4173L88.5338 69.96ZM72.4538 66.6L74.9019 67.1065L74.9036 67.0983L72.4538 66.6ZM77.8538 53.4L75.7736 52.0132L75.7641 52.0275L75.7548 52.0419L77.8538 53.4ZM88.0538 44.04L89.2852 46.2156L89.3007 46.2069L89.316 46.198L88.0538 44.04ZM118.894 44.04L117.614 46.1874L117.638 46.2018L117.662 46.2156L118.894 44.04ZM129.094 53.4L131.193 52.0419L131.183 52.0275L131.174 52.0132L129.094 53.4ZM134.494 66.6L132.044 67.0983L132.049 67.1226L132.054 67.1468L134.494 66.6ZM134.494 95.76L132.052 95.2221L132.049 95.2377L132.046 95.2535L134.494 95.76ZM129.094 108.84L131.174 110.227L131.183 110.213L131.193 110.198L129.094 108.84ZM118.894 118.32L120.143 120.485L120.15 120.482L120.156 120.478L118.894 118.32ZM88.0538 118.32L86.7915 120.478L86.8068 120.487L86.8223 120.496L88.0538 118.32ZM77.8538 108.84L75.7548 110.198L75.7641 110.213L75.7736 110.227L77.8538 108.84ZM72.4538 95.76L70.0039 96.2583L70.0056 96.2665L72.4538 95.76ZM85.0738 81.12C85.0738 85.3288 85.4037 89.2441 86.0759 92.8573L90.9916 91.9427C90.3838 88.6759 90.0738 85.0712 90.0738 81.12H85.0738ZM86.0779 92.8678C86.7653 96.4768 87.9465 99.6403 89.6826 102.29L93.8649 99.5499C92.561 97.5597 91.5822 95.0432 90.9896 91.9322L86.0779 92.8678ZM89.6538 102.245C91.055 104.487 92.8868 106.319 95.1288 107.72L97.7787 103.48C96.1807 102.481 94.8925 101.193 93.8937 99.595L89.6538 102.245ZM95.1941 107.759C97.5837 109.153 100.405 109.78 103.534 109.78V104.78C101.063 104.78 99.1638 104.287 97.7134 103.441L95.1941 107.759ZM103.534 109.78C106.722 109.78 109.571 109.161 111.914 107.735L109.314 103.465C107.976 104.279 106.105 104.78 103.534 104.78V109.78ZM111.979 107.694C114.133 106.289 115.907 104.463 117.294 102.245L113.054 99.595C112.04 101.217 110.774 102.511 109.248 103.506L111.979 107.694ZM117.232 102.339C119.067 99.6789 120.298 96.4978 120.99 92.8678L116.078 91.9322C115.489 95.0222 114.481 97.5211 113.116 99.5007L117.232 102.339ZM120.992 92.8573C121.664 89.2441 121.994 85.3288 121.994 81.12H116.994C116.994 85.0712 116.684 88.6759 116.076 91.9427L120.992 92.8573ZM121.994 81.12C121.994 76.912 121.664 73.0325 120.99 69.4922L116.078 70.4278C116.684 73.6075 116.994 77.168 116.994 81.12H121.994ZM120.992 69.5027C120.302 65.7986 119.073 62.5706 117.232 59.9007L113.116 62.7393C114.474 64.7093 115.485 67.2414 116.076 70.4173L120.992 69.5027ZM117.294 59.995C115.898 57.762 114.103 55.9575 111.914 54.6245L109.314 58.8955C110.804 59.8025 112.049 61.038 113.054 62.645L117.294 59.995ZM111.979 54.666C109.625 53.1302 106.75 52.46 103.534 52.46V57.46C106.077 57.46 107.923 57.9898 109.248 58.854L111.979 54.666ZM103.534 52.46C100.376 52.46 97.5306 53.1389 95.1288 54.64L97.7788 58.88C99.2169 57.9811 101.092 57.46 103.534 57.46V52.46ZM95.1941 54.6006C92.9172 55.9287 91.0645 57.7379 89.6538 59.995L93.8937 62.645C94.883 61.0621 96.1503 59.8312 97.7134 58.9194L95.1941 54.6006ZM89.6826 59.9499C87.9404 62.6091 86.7612 65.8192 86.0759 69.5027L90.9916 70.4173C91.5863 67.2208 92.5671 64.6709 93.8649 62.6901L89.6826 59.9499ZM86.0779 69.4922C85.4036 73.0325 85.0738 76.912 85.0738 81.12H90.0738C90.0738 77.168 90.3839 73.6075 90.9896 70.4278L86.0779 69.4922ZM73.5138 81.12C73.5138 76.2394 73.9785 71.5697 74.9019 67.1065L70.0056 66.0935C69.009 70.9103 68.5138 75.9206 68.5138 81.12H73.5138ZM74.9036 67.0983C75.8008 62.6871 77.4808 58.5783 79.9527 54.7581L75.7548 52.0419C72.9467 56.3817 71.0267 61.0729 70.0039 66.1017L74.9036 67.0983ZM79.9339 54.7867C82.2646 51.2907 85.3665 48.4338 89.2852 46.2156L86.8223 41.8644C82.261 44.4462 78.5629 47.8293 75.7736 52.0132L79.9339 54.7867ZM89.316 46.198C93.0918 43.9895 97.7927 42.82 103.534 42.82V37.82C97.1148 37.82 91.4957 39.1305 86.7915 41.882L89.316 46.198ZM103.534 42.82C109.277 42.82 113.928 43.9902 117.614 46.1874L120.174 41.8926C115.539 39.1298 109.951 37.82 103.534 37.82V42.82ZM117.662 46.2156C121.581 48.4338 124.683 51.2907 127.014 54.7867L131.174 52.0132C128.385 47.8293 124.686 44.4462 120.125 41.8644L117.662 46.2156ZM126.995 54.7581C129.467 58.5783 131.147 62.6871 132.044 67.0983L136.944 66.1017C135.921 61.0729 134.001 56.3817 131.193 52.0419L126.995 54.7581ZM132.054 67.1468C133.052 71.5969 133.554 76.253 133.554 81.12H138.554C138.554 75.907 138.016 70.8831 136.933 66.0532L132.054 67.1468ZM133.554 81.12C133.554 85.9868 133.052 90.6861 132.052 95.2221L136.935 96.2979C138.016 91.3939 138.554 86.3332 138.554 81.12H133.554ZM132.046 95.2535C131.15 99.5826 129.471 103.655 126.995 107.482L131.193 110.198C133.996 105.865 135.918 101.217 136.942 96.2665L132.046 95.2535ZM127.014 107.453C124.678 110.957 121.565 113.861 117.632 116.162L120.156 120.478C124.702 117.819 128.39 114.403 131.174 110.227L127.014 107.453ZM117.644 116.155C113.953 118.284 109.29 119.42 103.534 119.42V124.42C109.938 124.42 115.515 123.156 120.143 120.485L117.644 116.155ZM103.534 119.42C97.7798 119.42 93.0673 118.285 89.2852 116.144L86.8223 120.496C91.5202 123.155 97.1277 124.42 103.534 124.42V119.42ZM89.316 116.162C85.382 113.861 82.2699 110.957 79.9339 107.453L75.7736 110.227C78.5576 114.403 82.2455 117.819 86.7915 120.478L89.316 116.162ZM79.9527 107.482C77.4764 103.655 75.7976 99.5826 74.9019 95.2535L70.0056 96.2665C71.0299 101.217 72.9511 105.865 75.7548 110.198L79.9527 107.482ZM74.9036 95.2617C73.9785 90.7131 73.5138 86.0004 73.5138 81.12H68.5138C68.5138 86.3196 69.009 91.3669 70.0039 96.2583L74.9036 95.2617ZM170.24 78.12V80.62H172.74V78.12H170.24ZM170.24 54.72V52.22H167.74V54.72H170.24ZM183.68 54.72H186.18V52.22H183.68V54.72ZM183.68 78.12H181.18V80.62H183.68V78.12ZM206.48 78.12H208.98V75.62H206.48V78.12ZM206.48 91.2V93.7H208.98V91.2H206.48ZM183.68 91.2V88.7H181.18V91.2H183.68ZM183.68 114.72V117.22H186.18V114.72H183.68ZM170.24 114.72H167.74V117.22H170.24V114.72ZM170.24 91.2H172.74V88.7H170.24V91.2ZM147.56 91.2H145.06V93.7H147.56V91.2ZM147.56 78.12V75.62H145.06V78.12H147.56ZM172.74 78.12V54.72H167.74V78.12H172.74ZM170.24 57.22H183.68V52.22H170.24V57.22ZM181.18 54.72V78.12H186.18V54.72H181.18ZM183.68 80.62H206.48V75.62H183.68V80.62ZM203.98 78.12V91.2H208.98V78.12H203.98ZM206.48 88.7H183.68V93.7H206.48V88.7ZM181.18 91.2V114.72H186.18V91.2H181.18ZM183.68 112.22H170.24V117.22H183.68V112.22ZM172.74 114.72V91.2H167.74V114.72H172.74ZM170.24 88.7H147.56V93.7H170.24V88.7ZM150.06 91.2V78.12H145.06V91.2H150.06ZM147.56 80.62H170.24V75.62H147.56V80.62Z" fill="url(#paint0_linear)"/>
<defs>
<linearGradient id="paint0_linear" x1="106.5" y1="0" x2="106.5" y2="126" gradientUnits="userSpaceOnUse">
<stop stop-color="#E56F6E"/>
<stop offset="1" stop-color="#677CFC"/>
</linearGradient>
</defs>
</svg>
