<svg width="82" height="82" viewBox="0 0 82 82" fill="none" xmlns="http://www.w3.org/2000/svg">
<path d="M56.091 11.0125L48.3419 11C39.636 11 34.0099 16.7957 34.0099 25.7661V32.5742H26.2185C25.5452 32.5742 25 33.1223 25 33.7983V43.6625C25 44.3385 25.5458 44.886 26.2185 44.886H34.0099V69.7766C34.0099 70.4526 34.5551 71 35.2284 71H45.3939C46.0672 71 46.6124 70.452 46.6124 69.7766V44.886H55.7224C56.3956 44.886 56.9409 44.3385 56.9409 43.6625L56.9446 33.7983C56.9446 33.4737 56.8159 33.1629 56.5877 32.9331C56.3596 32.7034 56.0488 32.5742 55.7255 32.5742H46.6124V26.8029C46.6124 24.0289 47.2708 22.6207 50.8696 22.6207L56.0898 22.6189C56.7624 22.6189 57.3076 22.0708 57.3076 21.3954V12.2359C57.3076 11.5612 56.7631 11.0137 56.091 11.0125Z" fill="white"/>
</svg>
