<svg width="83" height="82" viewBox="0 0 83 82" fill="none" xmlns="http://www.w3.org/2000/svg">
<path d="M47.0403 36.1738C45.3156 36.1738 43.954 37.6564 43.954 39.5021C43.954 41.3478 45.3459 42.8304 47.0403 42.8304C48.7649 42.8304 50.1265 41.3478 50.1265 39.5021C50.1265 37.6564 48.7347 36.1738 47.0403 36.1738ZM35.9964 36.1738C34.2717 36.1738 32.9102 37.6564 32.9102 39.5021C32.9102 41.3478 34.302 42.8304 35.9964 42.8304C37.7211 42.8304 39.0826 41.3478 39.0826 39.5021C39.1129 37.6564 37.7211 36.1738 35.9964 36.1738Z" fill="white"/>
<path d="M61.7474 11H21.2027C17.7837 11 15 13.7837 15 17.2027V57.7474C15 61.1664 17.7837 63.9501 21.2027 63.9501H55.5144L53.9107 58.413L57.7837 61.9834L61.4448 65.3419L67.9803 71V17.2027C67.9501 13.7837 65.1664 11 61.7474 11ZM50.0681 50.1831C50.0681 50.1831 48.9788 48.882 48.0711 47.7625C52.0348 46.643 53.5477 44.1921 53.5477 44.1921C52.3071 45.0091 51.1271 45.584 50.0681 45.9773C48.5552 46.6127 47.1029 47.0061 45.6808 47.2784C42.7761 47.823 40.1135 47.6717 37.8442 47.2481C36.1195 46.9153 34.6369 46.4614 33.3964 45.9471C32.7005 45.6747 31.944 45.3419 31.1876 44.9183C31.0968 44.8578 31.0061 44.8275 30.9153 44.767C30.8548 44.7368 30.8245 44.7065 30.7943 44.7065C30.2496 44.4039 29.9471 44.1921 29.9471 44.1921C29.9471 44.1921 31.3994 46.5825 35.2421 47.7322C34.3343 48.882 33.2148 50.2133 33.2148 50.2133C26.528 50.0015 23.9864 45.6445 23.9864 45.6445C23.9864 35.9924 28.3434 28.1558 28.3434 28.1558C32.7005 24.9183 36.8154 25.0091 36.8154 25.0091L37.118 25.3722C31.6717 26.9153 29.1906 29.3056 29.1906 29.3056C29.1906 29.3056 29.8563 28.9425 30.9758 28.4584C34.2133 27.0363 36.7852 26.6732 37.8442 26.5522C38.0257 26.5219 38.177 26.4917 38.3585 26.4917C40.2042 26.2496 42.292 26.1891 44.4705 26.4312C47.3449 26.764 50.4312 27.6112 53.5779 29.3056C53.5779 29.3056 51.1876 27.0363 46.0439 25.4932L46.4675 25.0091C46.4675 25.0091 50.6127 24.9183 54.9395 28.1558C54.9395 28.1558 59.2965 35.9924 59.2965 45.6445C59.2965 45.6142 56.7549 49.9713 50.0681 50.1831Z" fill="white"/>
</svg>
