<svg width="122" height="22" viewBox="0 0 122 22" fill="none" xmlns="http://www.w3.org/2000/svg">
<mask id="mask0" mask-type="alpha" maskUnits="userSpaceOnUse" x="72" y="0" width="19" height="22">
<path d="M81.5176 0C86.5696 0 90.6657 3.80014 90.6657 8.48748C90.6657 13.1748 86.5696 16.975 81.5176 16.975C79.6119 16.975 77.8434 16.4332 76.3787 15.5085V22H72.1738V0.504766H76.3787V1.4665C77.8434 0.541776 79.6119 0 81.5176 0ZM81.5176 13.162C84.301 13.162 86.5564 11.0694 86.5564 8.48748C86.5564 5.90556 84.301 3.81248 81.5176 3.81248C78.7353 3.81248 76.4789 5.90556 76.4789 8.48748C76.4789 11.0694 78.7353 13.162 81.5176 13.162Z" fill="white"/>
</mask>
<g mask="url(#mask0)">
<path fill-rule="evenodd" clip-rule="evenodd" d="M72.1113 22.0027H90.7198V-0.0175781H72.1113V22.0027Z" fill="white"/>
</g>
<mask id="mask1" mask-type="alpha" maskUnits="userSpaceOnUse" x="92" y="0" width="15" height="17">
<path d="M101.986 0C103.442 0 104.814 0.322805 106.036 0.884631C104.834 1.81347 103.858 2.98287 103.19 4.31212C102.628 4.09469 102.013 3.97287 101.365 3.97287C98.8259 3.97287 96.7593 5.83106 96.6443 8.16111H96.6333V8.36004C96.6333 8.36158 96.6327 8.36312 96.6327 8.36415C96.6327 8.36518 96.6333 8.36672 96.6333 8.36775V15.3605C96.6322 15.36 96.6312 15.359 96.6301 15.3584V16.6363H92.4258V0.504769H96.6301V1.6166C98.1365 0.603975 99.9826 0 101.986 0Z" fill="white"/>
</mask>
<g mask="url(#mask1)">
<path fill-rule="evenodd" clip-rule="evenodd" d="M92.3711 16.6364H106.043V-0.0175781H92.3711V16.6364Z" fill="white"/>
</g>
<mask id="mask2" mask-type="alpha" maskUnits="userSpaceOnUse" x="103" y="0" width="19" height="17">
<path d="M112.851 0C117.903 0 121.999 3.80021 121.999 8.48763C121.999 13.175 117.903 16.9753 112.851 16.9753C107.799 16.9753 103.703 13.175 103.703 8.48763C103.703 3.80021 107.799 0 112.851 0ZM112.851 13.2259C115.672 13.2259 117.959 11.1045 117.959 8.48763C117.959 5.87071 115.672 3.74881 112.851 3.74881C110.03 3.74881 107.744 5.87071 107.744 8.48763C107.744 11.1045 110.03 13.2259 112.851 13.2259Z" fill="white"/>
</mask>
<g mask="url(#mask2)">
<path fill-rule="evenodd" clip-rule="evenodd" d="M103.693 17.0051H122.049V-0.019043H103.693V17.0051Z" fill="white"/>
</g>
<path fill-rule="evenodd" clip-rule="evenodd" d="M1 15.0149L3.26751 12.4947C4.83721 13.697 6.48127 14.4598 8.47557 14.4598C10.0447 14.4598 10.9915 13.882 10.9915 12.9342V12.8879C10.9915 11.9863 10.3934 11.5242 7.47815 10.8303C3.9648 9.99856 1.69729 9.09644 1.69729 5.88275V5.83648C1.69729 2.90036 4.23908 0.958372 7.80201 0.958372C10.3443 0.958372 12.5116 1.69908 14.2807 3.01653L12.2875 5.69821C10.7426 4.70357 9.22296 4.10267 7.7519 4.10267C6.2819 4.10267 5.51023 4.7267 5.51023 5.51316V5.55891C5.51023 6.62243 6.25711 6.9694 9.27202 7.68595C12.8107 8.54181 14.8045 9.72047 14.8045 12.5409V12.5872C14.8045 15.8009 12.1635 17.6041 8.40014 17.6041C5.75866 17.6041 3.0924 16.7488 1 15.0149ZM16.5725 9.32775V9.28149C16.5725 4.68095 20.31 0.912109 25.6673 0.912109C28.9565 0.912109 30.9249 1.92988 32.5447 3.40925L30.1026 6.02153C28.7571 4.88913 27.3868 4.1952 25.6425 4.1952C22.702 4.1952 20.5843 6.46103 20.5843 9.23523V9.28149C20.5843 12.0557 22.6524 14.3678 25.6425 14.3678C27.6358 14.3678 28.8568 13.6281 30.2271 12.4721L32.6692 14.7605C30.8748 16.5411 28.8816 17.6509 25.5175 17.6509C20.3849 17.6509 16.5725 13.9746 16.5725 9.32775ZM40.9154 1.07403H44.4535L51.9291 17.3728H47.9178L46.3223 13.7438H38.9475L37.3525 17.3728H33.4404L40.9154 1.07403ZM44.9525 10.5989L42.6349 5.35124L40.3178 10.5989H44.9525ZM53.8216 1.18968H60.6247C66.1059 1.18968 69.8941 4.68044 69.8941 9.23523V9.28149C69.8941 13.8358 66.1059 17.3733 60.6247 17.3733H53.8216V1.18968ZM60.6247 14.1596C63.7646 14.1596 65.8818 12.1945 65.8818 9.32775V9.28149C65.8818 6.41476 63.7646 4.40338 60.6247 4.40338H57.6593V14.1596H60.6247Z" stroke="white" stroke-width="0.439478"/>
</svg>
