<svg width="83" height="82" viewBox="0 0 83 82" fill="none" xmlns="http://www.w3.org/2000/svg">
<path d="M54.7882 11H27.2118C18.2727 11 11 18.2727 11 27.2118V54.7882C11 63.7273 18.2727 71 27.2118 71H54.7882C63.7273 71 71 63.7273 71 54.7882V27.2118C71 18.2727 63.7273 11 54.7882 11ZM66.1527 54.7882C66.1527 61.0545 61.0546 66.1527 54.7882 66.1527H27.2118C20.9455 66.1527 15.8473 61.0546 15.8473 54.7882V27.2118C15.8473 20.9455 20.9454 15.8473 27.2118 15.8473H54.7882C61.0545 15.8473 66.1527 20.9454 66.1527 27.2118V54.7882V54.7882Z" fill="white"/>
<path d="M54.4222 38.9056C53.9957 36.029 52.6833 33.4218 50.627 31.3655C48.5707 29.3094 45.9635 27.9969 43.087 27.5704C41.7773 27.3763 40.4494 27.3763 39.1398 27.5704C35.5848 28.0977 32.448 29.9776 30.3071 32.864C28.1662 35.7504 27.2773 39.2979 27.8045 42.8526C28.3318 46.4075 30.2117 49.5442 33.0982 51.6852C35.4415 53.4232 38.22 54.3359 41.0849 54.3359C41.749 54.3359 42.4179 54.2869 43.0868 54.1876C46.6419 53.6604 49.7787 51.7805 51.9196 48.8941C54.0606 46.0078 54.9495 42.4604 54.4222 38.9056ZM42.3759 49.3927C40.1018 49.7304 37.8325 49.1615 35.9859 47.7919C34.1394 46.4224 32.9368 44.4157 32.5997 42.1417C32.2624 39.8677 32.8309 37.5983 34.2005 35.7518C35.5701 33.9053 37.5768 32.7027 39.8509 32.3655C40.2698 32.3034 40.6915 32.2723 41.1133 32.2723C41.535 32.2723 41.9569 32.3034 42.3757 32.3656C46.1528 32.9256 49.067 35.8396 49.6271 39.6168C50.3232 44.311 47.0704 48.6966 42.3759 49.3927Z" fill="white"/>
<path d="M57.8771 24.1214C57.4254 23.6702 56.8002 23.4116 56.162 23.4116C55.5237 23.4116 54.8985 23.6701 54.4468 24.1214C53.9952 24.5727 53.7363 25.1962 53.7363 25.8349C53.7363 26.4735 53.9952 27.097 54.4468 27.5483C54.8985 27.9995 55.5237 28.2581 56.162 28.2581C56.8002 28.2581 57.4254 27.9996 57.8771 27.5483C58.3288 27.097 58.5876 26.4724 58.5876 25.8349C58.5876 25.1971 58.3288 24.5726 57.8771 24.1214Z" fill="white"/>
</svg>
