<svg width="36" height="36" viewBox="0 0 36 36" fill="none" xmlns="http://www.w3.org/2000/svg">
<path d="M1.33152 0.602679L34.6685 0.602679C35.071 0.602679 35.3973 0.928991 35.3973 1.33152V34.6685C35.3973 35.071 35.071 35.3973 34.6685 35.3973H1.33152C0.928992 35.3973 0.602679 35.071 0.602679 34.6685L0.602679 1.33152C0.602679 0.928992 0.928991 0.602679 1.33152 0.602679Z" stroke="white" stroke-width="1.20536"/>
<path d="M9.6417 7.69212H14.1249V9.05125H11.1141V10.4104H13.8984V11.7695H11.1141V14.3745H9.6417V7.69212Z" fill="white"/>
<path d="M22.2794 7.69163H23.7518V13.0149H26.4795V14.374H22.2794V7.69163Z" fill="white"/>
<path d="M14.5193 25.2563C14.5193 25.6527 14.4595 26.0177 14.34 26.3512C14.2204 26.6847 14.0411 26.9741 13.802 27.2195C13.5692 27.4649 13.2766 27.6568 12.9242 27.7953C12.5718 27.9337 12.166 28.0029 11.7066 28.0029C11.241 28.0029 10.832 27.9337 10.4797 27.7953C10.1273 27.6568 9.83155 27.4649 9.59244 27.2195C9.35963 26.9741 9.18344 26.6847 9.06389 26.3512C8.94434 26.0177 8.88456 25.6527 8.88456 25.2563V21.1506H10.357V25.1997C10.357 25.4073 10.3884 25.5993 10.4513 25.7754C10.5206 25.9516 10.6149 26.1058 10.7345 26.2379C10.854 26.3638 10.9956 26.4644 11.1592 26.5399C11.3291 26.6092 11.5116 26.6438 11.7066 26.6438C11.9017 26.6438 12.081 26.6092 12.2446 26.5399C12.4082 26.4644 12.5498 26.3638 12.6694 26.2379C12.7889 26.1058 12.8802 25.9516 12.9431 25.7754C13.0123 25.5993 13.0469 25.4073 13.0469 25.1997V21.1506H14.5193V25.2563Z" fill="white"/>
<path d="M22.9699 24.3408L20.7613 21.1506H22.6113L24.0365 23.4913L25.405 21.1506H27.1889L25.0275 24.3125L27.4437 27.833H25.5938L23.961 25.1431L22.3753 27.833H20.6292L22.9699 24.3408Z" fill="white"/>
</svg>
