<svg width="406" height="108" viewBox="0 0 406 108" fill="none" xmlns="http://www.w3.org/2000/svg">
<path d="M0.664 105V2.90399H20.824V105H0.664ZM109.791 92.184C109.791 94.584 109.839 96.984 109.935 99.384C110.031 101.688 110.175 103.56 110.367 105H92.0793C91.8873 104.232 91.6953 103.08 91.5033 101.544C91.4073 100.008 91.3593 98.424 91.3593 96.792C89.7273 99.576 87.1833 101.928 83.7273 103.848C80.3673 105.768 76.2873 106.728 71.4873 106.728C66.3993 106.728 61.7433 105.816 57.5193 103.992C53.2953 102.072 49.6473 99.48 46.5753 96.216C43.5993 92.856 41.2473 88.92 39.5193 84.408C37.7913 79.8 36.9273 74.808 36.9273 69.432C36.9273 64.248 37.7433 59.4 39.3753 54.888C41.1033 50.376 43.4553 46.488 46.4313 43.224C49.4073 39.864 52.9593 37.224 57.0873 35.304C61.3113 33.384 65.9193 32.424 70.9113 32.424C73.9833 32.424 76.6233 32.712 78.8313 33.288C81.1353 33.864 83.1033 34.584 84.7353 35.448C86.3673 36.312 87.6633 37.272 88.6233 38.328C89.6793 39.288 90.4473 40.248 90.9273 41.208V0.743995H109.791V92.184ZM56.2233 69.432C56.2233 75.768 57.8553 80.712 61.1193 84.264C64.4793 87.816 68.7033 89.592 73.7913 89.592C78.6873 89.592 82.8153 87.816 86.1753 84.264C89.5353 80.712 91.2153 75.72 91.2153 69.288C91.2153 62.952 89.5353 58.104 86.1753 54.744C82.8153 51.288 78.6873 49.56 73.7913 49.56C68.8953 49.56 64.7193 51.288 61.2633 54.744C57.9033 58.2 56.2233 63.096 56.2233 69.432ZM176.216 61.512C176.12 59.784 175.736 58.104 175.064 56.472C174.488 54.744 173.528 53.256 172.184 52.008C170.936 50.664 169.304 49.608 167.288 48.84C165.368 47.976 163.064 47.544 160.376 47.544C157.88 47.544 155.672 47.976 153.752 48.84C151.832 49.704 150.2 50.808 148.856 52.152C147.512 53.496 146.456 54.984 145.688 56.616C145.016 58.248 144.632 59.88 144.536 61.512H176.216ZM194.072 84.696C193.208 87.768 191.816 90.696 189.896 93.48C188.072 96.168 185.816 98.52 183.128 100.536C180.44 102.552 177.272 104.136 173.624 105.288C170.072 106.536 166.136 107.16 161.816 107.16C156.92 107.16 152.264 106.344 147.848 104.712C143.432 102.984 139.544 100.488 136.184 97.224C132.824 93.96 130.136 89.976 128.12 85.272C126.2 80.568 125.24 75.24 125.24 69.288C125.24 63.624 126.2 58.488 128.12 53.88C130.04 49.272 132.584 45.384 135.752 42.216C139.016 38.952 142.76 36.456 146.984 34.728C151.208 32.904 155.576 31.992 160.088 31.992C171.128 31.992 179.72 35.256 185.864 41.784C192.008 48.312 195.08 57.288 195.08 68.712C195.08 70.056 195.032 71.352 194.936 72.6C194.84 73.752 194.792 74.424 194.792 74.616H144.104C144.2 76.92 144.728 79.08 145.688 81.096C146.744 83.016 148.04 84.696 149.576 86.136C151.208 87.576 153.08 88.728 155.192 89.592C157.304 90.36 159.56 90.744 161.96 90.744C166.472 90.744 169.976 89.736 172.472 87.72C175.064 85.704 176.936 83.112 178.088 79.944L194.072 84.696ZM205.842 85.704C205.842 82.536 206.37 79.752 207.426 77.352C208.578 74.856 210.114 72.696 212.034 70.872C213.954 69.048 216.162 67.608 218.658 66.552C221.25 65.496 224.034 64.728 227.01 64.248L244.434 61.656C246.45 61.368 247.842 60.792 248.61 59.928C249.378 58.968 249.762 57.864 249.762 56.616C249.762 54.12 248.754 51.96 246.738 50.136C244.818 48.312 241.842 47.4 237.81 47.4C233.586 47.4 230.322 48.552 228.018 50.856C225.81 53.16 224.562 55.848 224.274 58.92L207.282 55.32C207.57 52.536 208.434 49.752 209.874 46.968C211.314 44.184 213.282 41.688 215.778 39.48C218.274 37.272 221.346 35.496 224.994 34.152C228.642 32.712 232.866 31.992 237.666 31.992C243.234 31.992 247.986 32.76 251.922 34.296C255.858 35.736 259.026 37.704 261.426 40.2C263.922 42.6 265.698 45.432 266.754 48.696C267.906 51.96 268.482 55.368 268.482 58.92V93.768C268.482 95.688 268.578 97.752 268.77 99.96C268.962 102.072 269.154 103.752 269.346 105H251.778C251.586 104.04 251.394 102.744 251.202 101.112C251.106 99.384 251.058 97.848 251.058 96.504C249.234 99.288 246.594 101.736 243.138 103.848C239.778 105.96 235.458 107.016 230.178 107.016C226.434 107.016 223.026 106.392 219.954 105.144C216.978 103.992 214.434 102.456 212.322 100.536C210.21 98.52 208.578 96.264 207.426 93.768C206.37 91.176 205.842 88.488 205.842 85.704ZM234.21 92.76C236.226 92.76 238.146 92.52 239.97 92.04C241.89 91.464 243.57 90.552 245.01 89.304C246.45 87.96 247.602 86.28 248.466 84.264C249.33 82.152 249.762 79.512 249.762 76.344V73.176L233.778 75.624C231.282 76.008 229.17 76.92 227.442 78.36C225.81 79.704 224.994 81.768 224.994 84.552C224.994 86.664 225.762 88.584 227.298 90.312C228.834 91.944 231.138 92.76 234.21 92.76ZM310.981 34.152H325.237V51.144H310.981V80.808C310.981 83.88 311.653 86.04 312.997 87.288C314.437 88.44 316.549 89.016 319.333 89.016C320.485 89.016 321.637 88.968 322.789 88.872C323.941 88.776 324.757 88.632 325.237 88.44V104.28C324.373 104.664 323.029 105.048 321.205 105.432C319.477 105.816 317.221 106.008 314.437 106.008C307.525 106.008 302.053 104.088 298.021 100.248C293.989 96.408 291.973 91.032 291.973 84.12V51.144H279.157V34.152H282.757C286.501 34.152 289.237 33.096 290.965 30.984C292.789 28.776 293.701 26.088 293.701 22.92V12.984H310.981V34.152ZM386.45 61.512C386.354 59.784 385.97 58.104 385.298 56.472C384.722 54.744 383.762 53.256 382.418 52.008C381.17 50.664 379.538 49.608 377.522 48.84C375.602 47.976 373.298 47.544 370.61 47.544C368.114 47.544 365.906 47.976 363.986 48.84C362.066 49.704 360.434 50.808 359.09 52.152C357.746 53.496 356.69 54.984 355.922 56.616C355.25 58.248 354.866 59.88 354.77 61.512H386.45ZM404.306 84.696C403.442 87.768 402.05 90.696 400.13 93.48C398.306 96.168 396.05 98.52 393.362 100.536C390.674 102.552 387.506 104.136 383.858 105.288C380.306 106.536 376.37 107.16 372.05 107.16C367.154 107.16 362.498 106.344 358.082 104.712C353.666 102.984 349.778 100.488 346.418 97.224C343.058 93.96 340.37 89.976 338.354 85.272C336.434 80.568 335.474 75.24 335.474 69.288C335.474 63.624 336.434 58.488 338.354 53.88C340.274 49.272 342.818 45.384 345.986 42.216C349.25 38.952 352.994 36.456 357.218 34.728C361.442 32.904 365.81 31.992 370.322 31.992C381.362 31.992 389.954 35.256 396.098 41.784C402.242 48.312 405.314 57.288 405.314 68.712C405.314 70.056 405.266 71.352 405.17 72.6C405.074 73.752 405.026 74.424 405.026 74.616H354.338C354.434 76.92 354.962 79.08 355.922 81.096C356.978 83.016 358.274 84.696 359.81 86.136C361.442 87.576 363.314 88.728 365.426 89.592C367.538 90.36 369.794 90.744 372.194 90.744C376.706 90.744 380.21 89.736 382.706 87.72C385.298 85.704 387.17 83.112 388.322 79.944L404.306 84.696Z" fill="url(#paint0_linear)"/>
<defs>
<linearGradient id="paint0_linear" x1="-48.7256" y1="54.1233" x2="468.904" y2="54.1233" gradientUnits="userSpaceOnUse">
<stop stop-color="#677CFC"/>
<stop offset="0.990249" stop-color="#E56F6E"/>
</linearGradient>
</defs>
</svg>
