<svg width="218" height="150" viewBox="0 0 218 150" fill="none" xmlns="http://www.w3.org/2000/svg">
<mask id="mask0" mask-type="alpha" maskUnits="userSpaceOnUse" x="62" y="0" width="94" height="82">
<path d="M62.7886 0H155.752V81.0639H62.7886V0Z" fill="white"/>
</mask>
<g mask="url(#mask0)">
<path fill-rule="evenodd" clip-rule="evenodd" d="M155.439 79.8107L155.455 79.7868L115.23 43.9199L114.37 43.0403C114.769 42.2023 114.999 41.2704 114.999 40.2843C114.999 36.696 112.05 33.7876 108.413 33.7876C107.499 33.7876 106.628 33.9715 105.838 34.3036L103.394 32.3088C103.518 31.5753 104.363 27.7356 108.804 24.6432C113.118 21.6383 118.749 21.9496 120.96 23.0717L123.558 17.5453C123.558 17.5453 115.48 14.2481 107.505 18.2812C100.865 21.6396 98.3817 27.3538 98.1166 28.0021L93.1595 23.957C93.1857 23.9035 97.0862 15.788 106.225 12.0006C112.67 9.32964 118.695 9.32081 126.228 11.8128L129.172 6.65304C127.247 5.69784 117.322 1.99421 105.661 5.43951C94.1337 8.8451 88.3986 18.3827 87.7413 19.5351L64.3205 0.221789L64.3122 0.23061C64.1462 0.0926222 63.9386 0 63.7048 0C63.1771 0 62.7498 0.421525 62.7498 0.941344C62.7498 1.20787 62.8641 1.44604 63.0442 1.61742L102.358 37.7268C102.016 38.5113 101.826 39.3764 101.826 40.2843C101.826 43.872 104.775 46.7805 108.413 46.7805C109.315 46.7805 110.174 46.6009 110.957 46.2771V46.2777L117.88 51.7941C117.693 52.7575 116.731 56.388 112.493 59.3399C108.178 62.3454 102.547 62.0329 100.336 60.9114L97.7384 66.4378C97.7384 66.4378 105.817 69.735 113.791 65.7019C120.347 62.3864 122.851 56.7742 123.168 56.0081L128.103 59.9417C127.747 60.6555 123.799 68.2222 115.066 71.8408C108.622 74.5111 102.596 74.5205 95.0638 72.0292L92.1202 77.1883C94.0436 78.1435 103.97 81.8471 115.63 78.4018C127.228 74.9748 132.961 65.3446 133.56 64.2899L154.551 80.8554C154.558 80.8623 154.565 80.8667 154.573 80.873L154.672 80.9524L154.679 80.9436C154.788 81.0129 154.91 81.0639 155.05 81.0639C155.438 81.0639 155.752 80.7533 155.752 80.3715C155.752 80.1346 155.623 79.9361 155.439 79.8107Z" fill="white"/>
</g>
<path fill-rule="evenodd" clip-rule="evenodd" d="M7.6912 134.087V135.17H3.49977V139.207H6.59335V140.289H3.49977V144.85H7.89073V145.933H2.20239V134.087H7.6912Z" fill="white"/>
<path fill-rule="evenodd" clip-rule="evenodd" d="M13.8584 139.323C13.7299 137.913 13.162 137.444 12.3566 137.444C11.2398 137.444 10.7639 138.13 10.7639 141.237C10.7639 144.344 11.2398 145.029 12.3566 145.029C13.1995 145.029 13.675 144.597 13.8949 142.971H15.1767C14.9568 144.813 14.0779 146.114 12.3566 146.114C10.3609 146.114 9.44556 144.633 9.44556 141.237C9.44556 137.842 10.3609 136.36 12.3566 136.36C14.0779 136.36 14.8838 137.48 15.1402 139.323H13.8584Z" fill="white"/>
<path fill-rule="evenodd" clip-rule="evenodd" d="M19.8276 145.029C20.9444 145.029 21.4204 144.344 21.4204 141.237C21.4204 138.13 20.9444 137.444 19.8276 137.444C18.7107 137.444 18.2343 138.13 18.2343 141.237C18.2343 144.344 18.7107 145.029 19.8276 145.029ZM19.8276 136.36C21.8233 136.36 22.7391 137.842 22.7391 141.237C22.7391 144.633 21.8233 146.114 19.8276 146.114C17.8314 146.114 16.916 144.633 16.916 141.237C16.916 137.842 17.8314 136.36 19.8276 136.36Z" fill="white"/>
<path fill-rule="evenodd" clip-rule="evenodd" d="M25.0637 136.541H26.309V137.57C26.9314 136.938 27.8473 136.36 28.4697 136.36C29.788 136.36 30.5579 137.083 30.5579 138.817V145.933H29.2391V138.997C29.2391 137.913 28.9096 137.444 28.1952 137.444C27.5543 137.444 26.9689 137.878 26.382 138.6V145.933H25.0637V136.541Z" fill="white"/>
<path fill-rule="evenodd" clip-rule="evenodd" d="M35.7753 145.029C36.8922 145.029 37.3686 144.344 37.3686 141.237C37.3686 138.13 36.8922 137.444 35.7753 137.444C34.6585 137.444 34.1826 138.13 34.1826 141.237C34.1826 144.344 34.6585 145.029 35.7753 145.029ZM35.7753 136.36C37.7715 136.36 38.6874 137.842 38.6874 141.237C38.6874 144.633 37.7715 146.114 35.7753 146.114C33.7796 146.114 32.8643 144.633 32.8643 141.237C32.8643 137.842 33.7796 136.36 35.7753 136.36Z" fill="white"/>
<path fill-rule="evenodd" clip-rule="evenodd" d="M41.1584 145.933V136.541H42.3673V137.57C42.8797 136.974 43.6671 136.36 44.5829 136.36C45.3338 136.36 46.0477 136.848 46.2857 137.553C46.8171 136.974 47.5675 136.36 48.5019 136.36C49.7467 136.36 50.4241 137.191 50.4241 138.528V145.933H49.1058V138.709C49.1058 137.733 48.8128 137.444 48.1169 137.444C47.311 137.444 46.8536 138.004 46.4507 138.42V145.933H45.1324V138.709C45.1324 137.733 44.7844 137.444 44.0885 137.444C43.2826 137.444 42.8252 138.004 42.4772 138.42V145.933H41.1584Z" fill="white"/>
<path fill-rule="evenodd" clip-rule="evenodd" d="M53.6277 145.933H54.946V136.541H53.6277V145.933ZM53.6277 134.409H54.946V132.892H53.6277V134.409Z" fill="white"/>
<path fill-rule="evenodd" clip-rule="evenodd" d="M61.721 139.323C61.5925 137.913 61.0246 137.444 60.2192 137.444C59.1023 137.444 58.6259 138.13 58.6259 141.237C58.6259 144.344 59.1023 145.029 60.2192 145.029C61.0611 145.029 61.5375 144.597 61.7575 142.971H63.0393C62.8193 144.813 61.9404 146.114 60.2192 146.114C58.223 146.114 57.3076 144.633 57.3076 141.237C57.3076 137.842 58.223 136.36 60.2192 136.36C61.9404 136.36 62.7458 137.48 63.0023 139.323H61.721Z" fill="white"/>
<path fill-rule="evenodd" clip-rule="evenodd" d="M70.9451 144.85H71.6434C73.5394 144.85 74.6372 144.063 74.6372 140.01C74.6372 135.958 73.5394 135.17 71.6434 135.17H70.9451V144.85ZM69.6477 134.087H71.8765C74.4051 134.087 75.9346 135.466 75.9346 140.01C75.9346 144.555 74.4051 145.933 71.8765 145.933H69.6477V134.087Z" fill="white"/>
<path fill-rule="evenodd" clip-rule="evenodd" d="M82.3264 140.369C82.2899 138.348 81.9244 137.444 80.7336 137.444C79.7807 137.444 79.1583 138.13 79.1403 140.369H82.3264ZM79.1403 141.453V141.977C79.1403 144.271 79.6717 145.029 80.9166 145.029C81.9244 145.029 82.3453 144.109 82.5103 143.259L83.7551 143.405C83.5537 144.813 82.4738 146.114 80.7336 146.114C78.7374 146.114 77.8225 144.633 77.8225 141.237C77.8225 137.842 78.7374 136.36 80.7336 136.36C82.7478 136.36 83.6456 138.13 83.6456 140.84V141.453H79.1403Z" fill="white"/>
<path fill-rule="evenodd" clip-rule="evenodd" d="M86.3002 136.541L88.204 144.633H88.2405L90.1082 136.541H91.4275L89.0838 145.933H87.3256L84.9819 136.541H86.3002Z" fill="white"/>
<path fill-rule="evenodd" clip-rule="evenodd" d="M97.2673 140.369C97.2308 138.348 96.8653 137.444 95.6745 137.444C94.7226 137.444 94.0997 138.13 94.0817 140.369H97.2673ZM94.0817 141.453V141.977C94.0817 144.271 94.6127 145.029 95.858 145.029C96.8653 145.029 97.2858 144.109 97.4512 143.259L98.6966 143.405C98.4946 144.813 97.4147 146.114 95.6745 146.114C93.6783 146.114 92.7634 144.633 92.7634 141.237C92.7634 137.842 93.6783 136.36 95.6745 136.36C97.6887 136.36 98.5866 138.13 98.5866 140.84V141.453H94.0817Z" fill="white"/>
<path fill-rule="evenodd" clip-rule="evenodd" d="M100.966 145.933H102.284V132.892H100.966V145.933Z" fill="white"/>
<path fill-rule="evenodd" clip-rule="evenodd" d="M107.558 145.029C108.674 145.029 109.15 144.344 109.15 141.237C109.15 138.13 108.674 137.444 107.558 137.444C106.441 137.444 105.964 138.13 105.964 141.237C105.964 144.344 106.441 145.029 107.558 145.029ZM107.558 136.36C109.553 136.36 110.47 137.842 110.47 141.237C110.47 144.633 109.553 146.114 107.558 146.114C105.561 146.114 104.646 144.633 104.646 141.237C104.646 137.842 105.561 136.36 107.558 136.36Z" fill="white"/>
<path fill-rule="evenodd" clip-rule="evenodd" d="M114.223 144.199C114.608 144.578 115.064 145.029 115.65 145.029C116.768 145.029 117.409 144.127 117.409 141.237C117.409 138.348 116.713 137.444 115.614 137.444C115.211 137.444 114.625 137.806 114.223 138.348V144.199ZM114.003 137.444H114.039C114.479 136.776 115.138 136.36 115.981 136.36C117.482 136.36 118.727 137.625 118.727 141.237C118.727 144.849 117.482 146.114 115.981 146.114C115.266 146.114 114.662 145.681 114.223 145.247V149.004H112.904V136.541H114.003V137.444Z" fill="white"/>
<path fill-rule="evenodd" clip-rule="evenodd" d="M121.417 145.933V136.541H122.627V137.57C123.139 136.974 123.927 136.36 124.842 136.36C125.593 136.36 126.307 136.848 126.545 137.553C127.076 136.974 127.827 136.36 128.761 136.36C130.006 136.36 130.684 137.191 130.684 138.528V145.933H129.365V138.709C129.365 137.733 129.072 137.444 128.376 137.444C127.571 137.444 127.113 138.004 126.71 138.42V145.933H125.391V138.709C125.391 137.733 125.044 137.444 124.348 137.444C123.542 137.444 123.084 138.004 122.737 138.42V145.933H121.417Z" fill="white"/>
<path fill-rule="evenodd" clip-rule="evenodd" d="M137.659 140.369C137.623 138.348 137.257 137.444 136.067 137.444C135.114 137.444 134.491 138.13 134.473 140.369H137.659ZM134.473 141.453V141.977C134.473 144.271 135.005 145.029 136.25 145.029C137.257 145.029 137.678 144.109 137.843 143.259L139.088 143.405C138.886 144.813 137.807 146.114 136.067 146.114C134.07 146.114 133.155 144.633 133.155 141.237C133.155 137.842 134.07 136.36 136.067 136.36C138.08 136.36 138.978 138.13 138.978 140.84V141.453H134.473Z" fill="white"/>
<path fill-rule="evenodd" clip-rule="evenodd" d="M141.302 136.541H142.548V137.57C143.17 136.938 144.086 136.36 144.708 136.36C146.027 136.36 146.797 137.083 146.797 138.817V145.933H145.477V138.997C145.477 137.913 145.149 137.444 144.434 137.444C143.794 137.444 143.207 137.878 142.622 138.6V145.933H141.302V136.541Z" fill="white"/>
<path fill-rule="evenodd" clip-rule="evenodd" d="M148.608 136.541H149.89V133.398H151.209V136.541H152.967V137.625H151.209V144.199C151.209 144.741 151.501 145.139 152.16 145.139C152.417 145.139 152.746 145.029 152.967 144.958V145.933C152.6 146.041 152.27 146.113 151.721 146.113C150.476 146.113 149.89 145.536 149.89 144.091V137.625H148.608V136.541Z" fill="white"/>
<path fill-rule="evenodd" clip-rule="evenodd" d="M160.658 141.339H163.353L162.022 134.973H161.989L160.658 141.339ZM162.903 134.087L165.548 145.933H164.251L163.536 142.422H160.475L159.76 145.933H158.462L161.107 134.087H162.903Z" fill="white"/>
<path fill-rule="evenodd" clip-rule="evenodd" d="M172.825 145.933H171.579V144.903C170.957 145.536 170.041 146.114 169.419 146.114C168.1 146.114 167.332 145.391 167.332 143.657V136.541H168.65V143.477C168.65 144.561 168.979 145.029 169.694 145.029C170.335 145.029 170.921 144.597 171.506 143.873V136.541H172.825V145.933Z" fill="white"/>
<path fill-rule="evenodd" clip-rule="evenodd" d="M174.636 136.541H175.918V133.398H177.236V136.541H178.994V137.625H177.236V144.199C177.236 144.741 177.529 145.139 178.189 145.139C178.445 145.139 178.775 145.029 178.994 144.958V145.933C178.628 146.041 178.299 146.113 177.749 146.113C176.504 146.113 175.918 145.536 175.918 144.091V137.625H174.636V136.541Z" fill="white"/>
<path fill-rule="evenodd" clip-rule="evenodd" d="M181.247 132.892H182.565V137.57C183.114 136.938 184.03 136.36 184.652 136.36C185.97 136.36 186.74 137.083 186.74 138.817V145.933H185.421V138.998C185.421 137.913 185.092 137.444 184.378 137.444C183.738 137.444 183.151 137.878 182.565 138.6V145.933H181.247V132.892Z" fill="white"/>
<path fill-rule="evenodd" clip-rule="evenodd" d="M191.958 145.029C193.075 145.029 193.551 144.344 193.551 141.237C193.551 138.13 193.075 137.444 191.958 137.444C190.841 137.444 190.365 138.13 190.365 141.237C190.365 144.344 190.841 145.029 191.958 145.029ZM191.958 136.36C193.954 136.36 194.87 137.842 194.87 141.237C194.87 144.633 193.954 146.114 191.958 146.114C189.962 146.114 189.047 144.633 189.047 141.237C189.047 137.842 189.962 136.36 191.958 136.36Z" fill="white"/>
<path fill-rule="evenodd" clip-rule="evenodd" d="M197.085 136.541H198.403V137.679H198.44C199.227 136.541 199.813 136.36 200.857 136.36V137.589C199.868 137.589 199.117 137.913 198.403 139.25V145.933H197.085V136.541Z" fill="white"/>
<path fill-rule="evenodd" clip-rule="evenodd" d="M202.688 145.933H204.006V136.541H202.688V145.933ZM202.688 134.409H204.006V132.892H202.688V134.409Z" fill="white"/>
<path fill-rule="evenodd" clip-rule="evenodd" d="M205.873 136.541H207.155V133.398H208.473V136.541H210.231V137.625H208.473V144.199C208.473 144.741 208.766 145.139 209.426 145.139C209.682 145.139 210.012 145.029 210.231 144.958V145.933C209.865 146.041 209.535 146.113 208.986 146.113C207.741 146.113 207.155 145.536 207.155 144.091V137.625H205.873V136.541Z" fill="white"/>
<path fill-rule="evenodd" clip-rule="evenodd" d="M212.556 136.541L214.351 143.729H214.388L215.852 136.541H217.208L215.028 145.734C214.534 147.794 213.619 149.004 212.025 149.004H211.348V147.92H211.751C212.794 147.92 213.472 147.18 213.728 145.861L211.202 136.541H212.556Z" fill="white"/>
<path fill-rule="evenodd" clip-rule="evenodd" d="M14.9387 105.115C11.4505 103.816 7.11065 102.198 7.11065 97.8947C7.11065 94.9581 9.1998 91.7977 13.7869 91.7977C18.1194 91.7977 21.4237 94.7834 22.8758 99.9981L24.4759 99.8719C24.346 99.006 24.2292 98.1904 24.1182 97.4195C23.762 94.9451 23.4788 92.9771 23.0671 91.2544C22.8778 91.2006 22.669 91.1382 22.4403 91.0705C20.7901 90.5795 18.2956 89.8374 15.1061 89.8374C7.31017 89.8374 2.07247 94.1214 2.07247 100.497C2.07247 106.602 8.3399 109.073 12.487 110.707L12.6403 110.767C15.9183 112.033 20.8753 113.947 20.8753 118.881C20.8753 122.98 17.8659 125.628 13.2097 125.628C7.52819 125.628 3.36158 119.9 2.14303 115.719L0.468018 115.846L0.772658 117.477C1.32061 120.418 1.93962 123.741 2.28124 124.827C3.17568 125.385 7.05955 127.589 12.5498 127.589C20.6611 127.589 26.3261 122.971 26.3261 116.359C26.2473 109.822 20.6577 107.22 14.9387 105.115Z" fill="white"/>
<path fill-rule="evenodd" clip-rule="evenodd" d="M35.0998 115.178H42.0339L38.5671 106.217H38.4474L35.0998 115.178ZM42.632 125.497L43.7673 125.379C45.4409 125.202 45.9786 124.73 44.7834 121.959L42.7512 117.183H34.4424C34.0238 118.126 33.0077 120.898 32.4101 122.667C31.6928 124.671 32.2311 125.261 33.964 125.379L35.3387 125.497V126.853H24.8784V125.497C27.5082 125.202 28.5243 124.967 30.2582 120.898L39.1049 100.203L40.5993 99.8489L49.5063 121.606C50.9404 125.085 52.0762 125.32 54.706 125.497V126.853H42.632V125.497Z" fill="white"/>
<path fill-rule="evenodd" clip-rule="evenodd" d="M60.2345 127.266C57.1263 119.955 52.8224 109.931 50.9095 105.45C49.6544 102.502 48.9371 102.207 46.0679 101.913V100.556H58.2621V101.913L56.5881 102.149C54.9744 102.325 54.7953 102.738 55.4522 104.389C56.2893 106.57 59.7566 114.589 62.5056 120.78C64.5982 116.122 67.8859 107.396 68.8422 104.743C69.4996 102.856 69.2008 102.325 67.1681 102.09L65.8532 101.913V100.556H76.6133V101.913C73.4448 102.266 72.8472 102.797 70.9347 106.688C69.3799 109.813 65.3753 118.952 61.9085 127.266H60.2345Z" fill="white"/>
<path fill-rule="evenodd" clip-rule="evenodd" d="M77.2316 115.178H84.1653L80.6989 106.217H80.5792L77.2316 115.178ZM84.7634 125.497L85.8992 125.379C87.5727 125.202 88.111 124.73 86.9153 121.959L84.8826 117.183H76.5742C76.1552 118.126 75.1396 120.898 74.5415 122.667C73.8242 124.671 74.3629 125.261 76.0953 125.379L77.4706 125.497V126.853H67.0103V125.497C69.6401 125.202 70.6562 124.967 72.3901 120.898L81.2372 100.203L82.7312 99.8489L91.6372 121.606C93.0723 125.085 94.2076 125.32 96.8374 125.497V126.853H84.7634V125.497Z" fill="white"/>
<path fill-rule="evenodd" clip-rule="evenodd" d="M123.078 127.147H121.165L102.935 107.101H102.874V115.709C102.874 119.955 103.054 122.018 103.233 123.256C103.413 124.671 104.727 125.32 107.716 125.497V126.853H96.3589V125.497C98.8694 125.379 100.124 124.671 100.363 123.256C100.543 122.018 100.723 119.955 100.723 115.709V107.809C100.723 103.092 99.7658 102.207 95.7014 101.913V100.556H103.054L120.807 119.837H120.926V111.7C120.926 107.455 120.748 105.391 120.568 104.094C120.329 102.679 119.014 102.09 116.025 101.913V100.556H127.443V101.913C124.931 102.03 123.676 102.679 123.437 104.094C123.258 105.391 123.078 107.455 123.078 111.7V127.147Z" fill="white"/>
<path fill-rule="evenodd" clip-rule="evenodd" d="M154.758 127.147H152.846L134.615 107.101H134.554V115.709C134.554 119.955 134.734 122.018 134.913 123.256C135.092 124.671 136.407 125.32 139.396 125.497V126.853H128.039V125.497C130.55 125.379 131.805 124.671 132.044 123.256C132.223 122.018 132.403 119.955 132.403 115.709V107.809C132.403 103.092 131.446 102.207 127.382 101.913V100.556H134.734L152.487 119.837H152.607V111.7C152.607 107.455 152.428 105.391 152.248 104.094C152.008 102.679 150.694 102.09 147.706 101.913V100.556H159.122V101.913C156.611 102.03 155.356 102.679 155.117 104.094C154.938 105.391 154.758 107.455 154.758 111.7V127.147Z" fill="white"/>
<mask id="mask1" mask-type="alpha" maskUnits="userSpaceOnUse" x="156" y="99" width="62" height="28">
<path d="M156.492 99.8489H218V126.853H156.492V99.8489Z" fill="white"/>
</mask>
<g mask="url(#mask1)">
<path fill-rule="evenodd" clip-rule="evenodd" d="M166.713 115.178H173.648L170.18 106.217H170.061L166.713 115.178ZM174.246 125.497L175.382 125.379C177.054 125.202 177.592 124.73 176.398 121.959L174.365 117.183H166.057C165.637 118.126 164.621 120.898 164.024 122.667C163.307 124.671 163.844 125.261 165.578 125.379L166.952 125.497V126.853H156.492V125.497C159.122 125.202 160.138 124.967 161.872 120.898L170.719 100.203L172.213 99.8489L181.12 121.606C182.554 125.085 183.69 125.32 186.319 125.497V126.853H174.246V125.497Z" fill="white"/>
<path fill-rule="evenodd" clip-rule="evenodd" d="M209.153 111.877V106.806C209.153 102.443 208.795 102.207 204.789 101.913V100.556H218V101.913C214.174 102.207 213.816 102.443 213.816 106.806V120.603C213.816 124.907 214.174 125.202 218 125.497V126.853H204.789V125.497C208.795 125.202 209.153 124.907 209.153 120.603V113.999H194.987V120.603C194.987 124.907 195.345 125.202 198.991 125.497V126.853H186.08V125.497C189.966 125.202 190.324 124.907 190.324 120.603V106.806C190.324 102.443 189.965 102.207 185.96 101.913V100.556H199.17V101.913C195.345 102.207 194.987 102.443 194.987 106.806V111.877H209.153Z" fill="white"/>
</g>
</svg>