<svg id="Layer_1" data-name="Layer 1" xmlns="http://www.w3.org/2000/svg" viewBox="0 0 28.4 32.79"><defs><style>.cls-1{fill:#fff;}</style></defs><polygon class="cls-1" points="18.96 7.93 12.44 11.21 22.27 13.65 18.96 7.93"/><polygon class="cls-1" points="18.52 7.17 14.38 0 8.6 10.01 18.52 7.17"/><polygon class="cls-1" points="6.07 14.4 6.07 14.4 22.7 14.4 22.7 14.4 22.69 14.4 11.6 11.63 6.07 14.4"/><polygon class="cls-1" points="8.16 10.77 6.63 13.43 10.68 11.4 8.16 10.77"/><path class="cls-1" d="M5.11,18.45l-.15,1A3.16,3.16,0,0,0,3,18.76c-1.34,0-2,1-2,2.48s.72,2.48,2,2.48a3.65,3.65,0,0,0,1.43-.31V21.78H3l-.14-.88H5.4V24a3.94,3.94,0,0,1-2.3.61A3,3,0,0,1,0,21.24c0-2.09,1.24-3.33,3.06-3.33A3.26,3.26,0,0,1,5.11,18.45ZM7,22.36A1.28,1.28,0,0,0,8.3,23.78a2.54,2.54,0,0,0,1.6-.63L10,24a2.68,2.68,0,0,1-1.83.62,2.06,2.06,0,0,1-2.09-2.35,2.06,2.06,0,0,1,2-2.35C9.46,19.87,10,21,10,22.13v.23Zm2.07-.72c-.06-.3-.18-1-1-1a1.1,1.1,0,0,0-1,1Zm3.52,2.93a2.06,2.06,0,0,1-2.09-2.34,2.1,2.1,0,1,1,4.18,0A2.08,2.08,0,0,1,12.62,24.57Zm0-.78c.71,0,1.17-.66,1.17-1.56s-.45-1.57-1.17-1.57-1.16.75-1.16,1.57S11.88,23.79,12.62,23.79Zm3.67-3a1.93,1.93,0,0,1,1.56-.89l.13.82a1.8,1.8,0,0,0-1.64,1v2.79h-.92V20h.76Zm6.12,0-.82.09a1.16,1.16,0,0,1,.14.64A1.59,1.59,0,0,1,20,23c-.19,0-.3,0-.34,0a.3.3,0,0,0-.18.22c0,.11.16.14.32.17s.69.14,1,.19c.86.13,1.46.47,1.46,1.17,0,.9-1,1.41-2.13,1.41-1.66,0-2.19-.6-2.19-1.19s.72-1,.9-1.14a.57.57,0,0,1-.24-.46.79.79,0,0,1,.41-.59,1.49,1.49,0,0,1-.78-1.32A1.62,1.62,0,0,1,20,19.88a1.81,1.81,0,0,1,1.15.36l1.16-.35Zm-2.87,3.41c-.34.15-.73.44-.73.76s.39.57,1.31.57c.69,0,1.27-.21,1.27-.63s-.5-.45-.91-.52ZM20,20.56a.87.87,0,0,0-.87.9.83.83,0,0,0,.87.89.9.9,0,0,0,0-1.79Zm4.13-2a.58.58,0,0,1-.58.56.57.57,0,1,1,0-1.13A.58.58,0,0,1,24.12,18.6ZM24,20h-.92v4.52H24V20Zm3.59,4.52,0-.56a1.66,1.66,0,0,1-1.35.65,1.36,1.36,0,0,1-1.52-1.41c0-1.35,1.83-1.54,2.79-1.64v-.14c0-.33-.13-.72-.88-.72a3.65,3.65,0,0,0-1.49.41L25,20.26a4.39,4.39,0,0,1,1.67-.38c1.35,0,1.74.61,1.74,1.59v3Zm-.11-2.24c-1,.11-1.89.32-1.89,1,0,.41.28.6.7.6a1.75,1.75,0,0,0,1.19-.59Zm-19.57,6a2,2,0,0,1-2.19,2H4.49v2.42h-1V26.21h2.2A2,2,0,0,1,7.91,28.24ZM4.49,29.42h1c1,0,1.39-.51,1.39-1.18s-.44-1.17-1.39-1.17h-1Zm5.45,3.37a2.06,2.06,0,0,1-2.09-2.35,2.1,2.1,0,1,1,4.18,0A2.08,2.08,0,0,1,9.94,32.79Zm0-.78c.71,0,1.17-.67,1.17-1.57s-.46-1.57-1.17-1.57-1.16.75-1.16,1.57S9.2,32,9.94,32Zm8.43-3.83-1.43,4.51h-.75l-1-3.12-.94,3.12h-.75l-1.43-4.51h.93L14,31.27l.94-3.09h.76l.94,3.09.92-3.09Zm1,2.39A1.29,1.29,0,0,0,20.66,32a2.56,2.56,0,0,0,1.6-.64l.13.81a2.68,2.68,0,0,1-1.83.62,2.07,2.07,0,0,1-2.09-2.36,2.06,2.06,0,0,1,2-2.35c1.34,0,1.93,1.1,1.93,2.27v.22Zm2.07-.71c-.06-.3-.18-1-1-1a1.11,1.11,0,0,0-1,1ZM24.08,29a1.93,1.93,0,0,1,1.56-.89l.13.83a1.79,1.79,0,0,0-1.64,1v2.79h-.92V28.18H24Z"/></svg>