<svg width="229" height="157" viewBox="0 0 229 157" fill="none" xmlns="http://www.w3.org/2000/svg">
<rect x="101" y="5" width="128" height="152" rx="12" fill="#F8F8F8" fill-opacity="0.08"/>
<path d="M18.36 73.92L16.7312 72.0234L15.089 73.4338L16.2499 75.2608L18.36 73.92ZM38.76 56.4L40.3888 58.2966L45.5081 53.9H38.76V56.4ZM4.68 56.4H2.18V58.9H4.68V56.4ZM4.68 42.12V39.62H2.18V42.12H4.68ZM59.76 42.12H62.26V39.62H59.76V42.12ZM59.76 55.44L61.3605 57.3605L62.26 56.6109V55.44H59.76ZM39.6 72.24L37.9995 70.3194L33.1114 74.3929L39.4651 74.7364L39.6 72.24ZM55.32 78.96L53.5522 80.7278L53.5696 80.7451L53.5872 80.7621L55.32 78.96ZM60.24 86.28L57.9323 87.2415L57.9436 87.2686L57.9555 87.2953L60.24 86.28ZM60.12 105.72L62.4117 106.719H62.4117L60.12 105.72ZM54.24 114L55.9188 115.852L55.9344 115.838L55.9499 115.824L54.24 114ZM44.88 119.64L45.791 121.968L44.88 119.64ZM20.04 119.76L19.1565 122.099L20.04 119.76ZM10.8 114.36L9.1212 116.212L9.13734 116.227L9.15374 116.241L10.8 114.36ZM4.68 106.44L2.42066 107.51L2.43779 107.546L2.45608 107.582L4.68 106.44ZM2.16 96.96L1.68036 94.5064L-0.495094 94.9317L-0.333334 97.1424L2.16 96.96ZM18.12 93.84L20.618 93.7401L20.5015 90.8271L17.6404 91.3864L18.12 93.84ZM22.2 103.68L20.4322 105.448L20.4458 105.461L20.4596 105.475L22.2 103.68ZM42 104.16L43.7365 105.959L43.7523 105.943L43.7678 105.928L42 104.16ZM41.88 87.24L40.2477 89.1335L40.2635 89.1472L40.2795 89.1606L41.88 87.24ZM28.56 84.6L28.0362 82.1555L28.017 82.1596L27.9979 82.164L28.56 84.6ZM25.68 85.44L23.5699 86.7808L24.647 88.4758L26.5344 87.7895L25.68 85.44ZM19.9888 75.8166L40.3888 58.2966L37.1312 54.5034L16.7312 72.0234L19.9888 75.8166ZM38.76 53.9H4.68V58.9H38.76V53.9ZM7.18 56.4V42.12H2.18V56.4H7.18ZM4.68 44.62H59.76V39.62H4.68V44.62ZM57.26 42.12V55.44H62.26V42.12H57.26ZM58.1595 53.5194L37.9995 70.3194L41.2005 74.1606L61.3605 57.3605L58.1595 53.5194ZM39.4651 74.7364C42.1465 74.8813 44.7102 75.4596 47.1681 76.4717L49.0719 71.8483C46.0898 70.6204 42.9735 69.9187 39.7349 69.7436L39.4651 74.7364ZM47.1681 76.4717C49.5829 77.466 51.7056 78.8812 53.5522 80.7278L57.0878 77.1922C54.7744 74.8788 52.0971 73.094 49.0719 71.8483L47.1681 76.4717ZM53.5872 80.7621C55.4004 82.5055 56.8534 84.6522 57.9323 87.2415L62.5477 85.3185C61.2266 82.1478 59.3996 79.4145 57.0528 77.1579L53.5872 80.7621ZM57.9555 87.2953C59.0746 89.8133 59.66 92.7002 59.66 96H64.66C64.66 92.0998 63.9655 88.5067 62.5245 85.2647L57.9555 87.2953ZM59.66 96C59.66 99.0117 59.0527 101.912 57.8283 104.721L62.4117 106.719C63.9073 103.288 64.66 99.7083 64.66 96H59.66ZM57.8283 104.721C56.6084 107.52 54.85 110.001 52.5302 112.176L55.9499 115.824C58.75 113.199 60.9116 110.16 62.4117 106.719L57.8283 104.721ZM52.5612 112.148C50.256 114.237 47.4065 115.967 43.969 117.312L45.791 121.968C49.7135 120.433 53.104 118.403 55.9188 115.852L52.5612 112.148ZM43.969 117.312C40.6298 118.619 36.7475 119.3 32.28 119.3V124.3C37.2525 124.3 41.7702 123.541 45.791 121.968L43.969 117.312ZM32.28 119.3C27.9673 119.3 24.1942 118.657 20.9235 117.421L19.1565 122.099C23.0858 123.583 27.4728 124.3 32.28 124.3V119.3ZM20.9235 117.421C17.5667 116.153 14.7539 114.498 12.4463 112.479L9.15374 116.241C11.9661 118.702 15.3133 120.647 19.1565 122.099L20.9235 117.421ZM12.4788 112.508C10.1331 110.382 8.28121 107.98 6.90392 105.298L2.45608 107.582C4.11879 110.82 6.34688 113.698 9.1212 116.212L12.4788 112.508ZM6.93934 105.37C5.6284 102.602 4.87029 99.7426 4.65333 96.7776L-0.333334 97.1424C-0.0702913 100.737 0.8516 104.198 2.42066 107.51L6.93934 105.37ZM2.63964 99.4136L18.5996 96.2936L17.6404 91.3864L1.68036 94.5064L2.63964 99.4136ZM15.622 93.9399C15.8042 98.4959 17.3794 102.395 20.4322 105.448L23.9678 101.912C21.9006 99.8451 20.7558 97.1841 20.618 93.7401L15.622 93.9399ZM20.4596 105.475C23.619 108.538 27.6279 110.02 32.28 110.02V105.02C28.7721 105.02 26.061 103.942 23.9404 101.885L20.4596 105.475ZM32.28 110.02C36.8926 110.02 40.8267 108.768 43.7365 105.959L40.2635 102.361C38.5333 104.032 35.9874 105.02 32.28 105.02V110.02ZM43.7678 105.928C46.5565 103.139 47.98 99.7033 47.98 95.76H42.98C42.98 98.3767 42.0835 100.541 40.2322 102.392L43.7678 105.928ZM47.98 95.76C47.98 91.4846 46.5542 87.8809 43.4805 85.3194L40.2795 89.1606C42.0058 90.5991 42.98 92.6755 42.98 95.76H47.98ZM43.5124 85.3465C40.6416 82.8717 36.9775 81.74 32.76 81.74V86.74C36.0625 86.74 38.4784 87.6083 40.2477 89.1335L43.5124 85.3465ZM32.76 81.74C30.9775 81.74 29.3878 81.8659 28.0362 82.1555L29.0838 87.0445C29.9722 86.8541 31.1825 86.74 32.76 86.74V81.74ZM27.9979 82.164C26.8722 82.4238 25.8133 82.7314 24.8256 83.0905L26.5344 87.7895C27.3067 87.5086 28.1678 87.2562 29.1221 87.036L27.9979 82.164ZM27.7901 84.0992L20.4701 72.5792L16.2499 75.2608L23.5699 86.7808L27.7901 84.0992ZM87.9478 92.4L85.49 92.8573L85.492 92.8678L87.9478 92.4ZM91.1878 100.92L93.3078 99.595L93.2936 99.5723L93.279 99.5499L91.1878 100.92ZM95.8678 105.6L94.5428 107.72L94.5752 107.74L94.6081 107.759L95.8678 105.6ZM110.028 105.6L111.328 107.735L111.361 107.715L111.393 107.694L110.028 105.6ZM114.588 100.92L112.53 99.5007L112.498 99.5471L112.468 99.595L114.588 100.92ZM117.948 92.4L120.404 92.8678L120.406 92.8573L117.948 92.4ZM117.948 69.96L115.49 70.4173L115.492 70.4278L117.948 69.96ZM114.588 61.32L112.468 62.645L112.498 62.6929L112.53 62.7393L114.588 61.32ZM110.028 56.76L108.662 58.854L108.695 58.8753L108.728 58.8955L110.028 56.76ZM95.8678 56.76L97.1275 58.9194L97.1605 58.9002L97.1928 58.88L95.8678 56.76ZM91.1878 61.32L93.279 62.6901L93.2936 62.6677L93.3078 62.645L91.1878 61.32ZM87.9478 69.96L90.4037 70.4278L90.4056 70.4173L87.9478 69.96ZM71.8678 66.6L74.316 67.1065L74.3177 67.0983L71.8678 66.6ZM77.2678 53.4L75.1877 52.0132L75.1782 52.0275L75.1689 52.0419L77.2678 53.4ZM87.4678 44.04L88.6993 46.2156L88.7147 46.2069L88.73 46.198L87.4678 44.04ZM118.308 44.04L117.028 46.1874L117.052 46.2018L117.076 46.2156L118.308 44.04ZM128.508 53.4L130.607 52.0419L130.597 52.0275L130.588 52.0132L128.508 53.4ZM133.908 66.6L131.458 67.0983L131.463 67.1226L131.468 67.1468L133.908 66.6ZM133.908 95.76L131.466 95.2221L131.463 95.2377L131.46 95.2535L133.908 95.76ZM128.508 108.84L130.588 110.227L130.597 110.213L130.607 110.198L128.508 108.84ZM118.308 118.32L119.557 120.485L119.564 120.482L119.57 120.478L118.308 118.32ZM87.4678 118.32L86.2056 120.478L86.2209 120.487L86.2363 120.496L87.4678 118.32ZM77.2678 108.84L75.1689 110.198L75.1782 110.213L75.1877 110.227L77.2678 108.84ZM71.8678 95.76L69.418 96.2583L69.4197 96.2665L71.8678 95.76ZM84.4878 81.12C84.4878 85.3288 84.8178 89.2441 85.49 92.8573L90.4056 91.9427C89.7979 88.6759 89.4878 85.0712 89.4878 81.12H84.4878ZM85.492 92.8678C86.1794 96.4768 87.3606 99.6403 89.0967 102.29L93.279 99.5499C91.975 97.5597 90.9962 95.0432 90.4037 91.9322L85.492 92.8678ZM89.0678 102.245C90.469 104.487 92.3009 106.319 94.5428 107.72L97.1928 103.48C95.5947 102.481 94.3066 101.193 93.3078 99.595L89.0678 102.245ZM94.6081 107.759C96.9978 109.153 99.8186 109.78 102.948 109.78V104.78C100.477 104.78 98.5779 104.287 97.1275 103.441L94.6081 107.759ZM102.948 109.78C106.136 109.78 108.985 109.161 111.328 107.735L108.728 103.465C107.39 104.279 105.519 104.78 102.948 104.78V109.78ZM111.393 107.694C113.547 106.289 115.321 104.463 116.708 102.245L112.468 99.595C111.454 101.217 110.188 102.511 108.662 103.506L111.393 107.694ZM116.646 102.339C118.481 99.6789 119.712 96.4978 120.404 92.8678L115.492 91.9322C114.903 95.0222 113.895 97.521 112.53 99.5007L116.646 102.339ZM120.406 92.8573C121.078 89.2441 121.408 85.3288 121.408 81.12H116.408C116.408 85.0712 116.098 88.6759 115.49 91.9427L120.406 92.8573ZM121.408 81.12C121.408 76.912 121.078 73.0325 120.404 69.4922L115.492 70.4278C116.098 73.6075 116.408 77.168 116.408 81.12H121.408ZM120.406 69.5027C119.716 65.7986 118.487 62.5706 116.646 59.9007L112.53 62.7393C113.888 64.7094 114.899 67.2414 115.49 70.4173L120.406 69.5027ZM116.708 59.995C115.312 57.762 113.518 55.9575 111.328 54.6245L108.728 58.8955C110.218 59.8025 111.463 61.038 112.468 62.645L116.708 59.995ZM111.393 54.666C109.039 53.1302 106.164 52.46 102.948 52.46V57.46C105.491 57.46 107.337 57.9898 108.662 58.854L111.393 54.666ZM102.948 52.46C99.79 52.46 96.9446 53.1389 94.5428 54.64L97.1928 58.88C98.631 57.9811 100.506 57.46 102.948 57.46V52.46ZM94.6081 54.6006C92.3312 55.9287 90.4785 57.7379 89.0678 59.995L93.3078 62.645C94.2971 61.0621 95.5644 59.8312 97.1275 58.9194L94.6081 54.6006ZM89.0967 59.9499C87.3545 62.6091 86.1753 65.8192 85.49 69.5027L90.4056 70.4173C91.0003 67.2208 91.9812 64.6709 93.279 62.6901L89.0967 59.9499ZM85.492 69.4922C84.8176 73.0325 84.4878 76.912 84.4878 81.12H89.4878C89.4878 77.168 89.798 73.6075 90.4037 70.4278L85.492 69.4922ZM72.9278 81.12C72.9278 76.2394 73.3925 71.5697 74.316 67.1065L69.4197 66.0935C68.4231 70.9103 67.9278 75.9206 67.9278 81.12H72.9278ZM74.3177 67.0983C75.2148 62.6871 76.8948 58.5783 79.3667 54.7581L75.1689 52.0419C72.3608 56.3817 70.4408 61.0729 69.418 66.1017L74.3177 67.0983ZM79.3479 54.7868C81.6786 51.2907 84.7806 48.4338 88.6993 46.2156L86.2363 41.8644C81.6751 44.4462 77.977 47.8293 75.1877 52.0132L79.3479 54.7868ZM88.73 46.198C92.5058 43.9895 97.2068 42.82 102.948 42.82V37.82C96.5289 37.82 90.9098 39.1305 86.2056 41.882L88.73 46.198ZM102.948 42.82C108.691 42.82 113.342 43.9902 117.028 46.1874L119.588 41.8926C114.953 39.1298 109.365 37.82 102.948 37.82V42.82ZM117.076 46.2156C120.995 48.4338 124.097 51.2907 126.428 54.7868L130.588 52.0132C127.799 47.8293 124.101 44.4462 119.539 41.8644L117.076 46.2156ZM126.409 54.7581C128.881 58.5783 130.561 62.6871 131.458 67.0983L136.358 66.1017C135.335 61.0729 133.415 56.3817 130.607 52.0419L126.409 54.7581ZM131.468 67.1468C132.466 71.5969 132.968 76.253 132.968 81.12H137.968C137.968 75.907 137.43 70.8831 136.347 66.0532L131.468 67.1468ZM132.968 81.12C132.968 85.9868 132.466 90.6861 131.466 95.2221L136.349 96.2979C137.43 91.3939 137.968 86.3332 137.968 81.12H132.968ZM131.46 95.2535C130.564 99.5826 128.885 103.655 126.409 107.482L130.607 110.198C133.41 105.865 135.332 101.217 136.356 96.2665L131.46 95.2535ZM126.428 107.453C124.092 110.957 120.98 113.861 117.046 116.162L119.57 120.478C124.116 117.819 127.804 114.403 130.588 110.227L126.428 107.453ZM117.059 116.155C113.367 118.284 108.704 119.42 102.948 119.42V124.42C109.352 124.42 114.929 123.156 119.557 120.485L117.059 116.155ZM102.948 119.42C97.1938 119.42 92.4814 118.285 88.6993 116.144L86.2363 120.496C90.9342 123.155 96.5418 124.42 102.948 124.42V119.42ZM88.73 116.162C84.7961 113.861 81.684 110.957 79.3479 107.453L75.1877 110.227C77.9717 114.403 81.6595 117.819 86.2056 120.478L88.73 116.162ZM79.3667 107.482C76.8905 103.655 75.2116 99.5826 74.316 95.2535L69.4197 96.2665C70.444 101.217 72.3652 105.865 75.1689 110.198L79.3667 107.482ZM74.3177 95.2617C73.3925 90.7131 72.9278 86.0004 72.9278 81.12H67.9278C67.9278 86.3196 68.4231 91.3669 69.418 96.2583L74.3177 95.2617ZM169.654 78.12V80.62H172.154V78.12H169.654ZM169.654 54.72V52.22H167.154V54.72H169.654ZM183.094 54.72H185.594V52.22H183.094V54.72ZM183.094 78.12H180.594V80.62H183.094V78.12ZM205.894 78.12H208.394V75.62H205.894V78.12ZM205.894 91.2V93.7H208.394V91.2H205.894ZM183.094 91.2V88.7H180.594V91.2H183.094ZM183.094 114.72V117.22H185.594V114.72H183.094ZM169.654 114.72H167.154V117.22H169.654V114.72ZM169.654 91.2H172.154V88.7H169.654V91.2ZM146.974 91.2H144.474V93.7H146.974V91.2ZM146.974 78.12V75.62H144.474V78.12H146.974ZM172.154 78.12V54.72H167.154V78.12H172.154ZM169.654 57.22H183.094V52.22H169.654V57.22ZM180.594 54.72V78.12H185.594V54.72H180.594ZM183.094 80.62H205.894V75.62H183.094V80.62ZM203.394 78.12V91.2H208.394V78.12H203.394ZM205.894 88.7H183.094V93.7H205.894V88.7ZM180.594 91.2V114.72H185.594V91.2H180.594ZM183.094 112.22H169.654V117.22H183.094V112.22ZM172.154 114.72V91.2H167.154V114.72H172.154ZM169.654 88.7H146.974V93.7H169.654V88.7ZM149.474 91.2V78.12H144.474V91.2H149.474ZM146.974 80.62H169.654V75.62H146.974V80.62Z" fill="url(#paint0_linear)" fill-opacity="0.8"/>
<defs>
<linearGradient id="paint0_linear" x1="35" y1="76" x2="183" y2="100" gradientUnits="userSpaceOnUse">
<stop stop-color="#E56F6E"/>
<stop offset="1" stop-color="#677CFC"/>
</linearGradient>
</defs>
</svg>
