<svg width="396" height="152" viewBox="0 0 396 152" fill="none" xmlns="http://www.w3.org/2000/svg">
<path d="M25.42 86.24L24.7685 85.4814L24.1116 86.0455L24.576 86.7763L25.42 86.24ZM49.22 65.8L49.8715 66.5586L51.9192 64.8H49.22V65.8ZM9.46 65.8H8.46V66.8H9.46V65.8ZM9.46 49.14V48.14H8.46V49.14H9.46ZM73.72 49.14H74.72V48.14H73.72V49.14ZM73.72 64.68L74.3602 65.4482L74.72 65.1484V64.68H73.72ZM50.2 84.28L49.5598 83.5118L47.6046 85.1412L50.146 85.2785L50.2 84.28ZM68.54 92.12L67.8329 92.8271L67.8398 92.834L67.8469 92.8408L68.54 92.12ZM74.28 100.66L73.3569 101.045L73.3614 101.055L73.3662 101.066L74.28 100.66ZM74.14 123.34L75.0567 123.74L74.14 123.34ZM67.28 133L67.9515 133.741L67.9578 133.735L67.9639 133.73L67.28 133ZM56.36 139.58L56.7244 140.511L56.36 139.58ZM27.38 139.72L27.0266 140.655L27.38 139.72ZM16.6 133.42L15.9285 134.161L15.9349 134.167L15.9415 134.173L16.6 133.42ZM9.46 124.18L8.55626 124.608L8.56312 124.623L8.57043 124.637L9.46 124.18ZM6.52 113.12L6.32814 112.139L5.45796 112.309L5.52267 113.193L6.52 113.12ZM25.14 109.48L26.1392 109.44L26.0926 108.275L24.9481 108.499L25.14 109.48ZM29.9 120.96L29.1929 121.667L29.1983 121.673L29.2039 121.678L29.9 120.96ZM53 121.52L53.6946 122.239L53.7009 122.233L53.7071 122.227L53 121.52ZM52.86 101.78L52.2071 102.537L52.2134 102.543L52.2198 102.548L52.86 101.78ZM37.32 98.7L37.1105 97.7222L37.1028 97.7238L37.0951 97.7256L37.32 98.7ZM33.96 99.68L33.116 100.216L33.5468 100.894L34.3017 100.62L33.96 99.68ZM26.0715 86.9986L49.8715 66.5586L48.5685 65.0414L24.7685 85.4814L26.0715 86.9986ZM49.22 64.8H9.46V66.8H49.22V64.8ZM10.46 65.8V49.14H8.46V65.8H10.46ZM9.46 50.14H73.72V48.14H9.46V50.14ZM72.72 49.14V64.68H74.72V49.14H72.72ZM73.0798 63.9118L49.5598 83.5118L50.8402 85.0482L74.3602 65.4482L73.0798 63.9118ZM50.146 85.2785C53.4879 85.4592 56.6907 86.1812 59.7593 87.4447L60.5208 85.5953C57.2426 84.2455 53.8187 83.4741 50.254 83.2815L50.146 85.2785ZM59.7593 87.4447C62.8105 88.7011 65.4996 90.4938 67.8329 92.8271L69.2471 91.4129C66.7271 88.8929 63.8162 86.9523 60.5208 85.5953L59.7593 87.4447ZM67.8469 92.8408C70.1668 95.0715 72.0054 97.8009 73.3569 101.045L75.2031 100.275C73.7546 96.7991 71.7665 93.8351 69.2331 91.3992L67.8469 92.8408ZM73.3662 101.066C74.7952 104.281 75.52 107.92 75.52 112H77.52C77.52 107.68 76.7515 103.759 75.1938 100.254L73.3662 101.066ZM75.52 112C75.52 115.781 74.7558 119.425 73.2233 122.94L75.0567 123.74C76.6976 119.975 77.52 116.059 77.52 112H75.52ZM73.2233 122.94C71.6927 126.452 69.4867 129.561 66.5961 132.27L67.9639 133.73C71.0467 130.839 73.414 127.508 75.0567 123.74L73.2233 122.94ZM66.6085 132.259C63.7238 134.873 60.1919 137.007 55.9956 138.649L56.7244 140.511C61.1147 138.793 64.8629 136.54 67.9515 133.741L66.6085 132.259ZM55.9956 138.649C51.8386 140.275 47.0657 141.1 41.66 141.1V143.1C47.2677 143.1 52.2948 142.245 56.7244 140.511L55.9956 138.649ZM41.66 141.1C36.4389 141.1 31.8017 140.321 27.7334 138.785L27.0266 140.655C31.3583 142.292 36.2411 143.1 41.66 143.1V141.1ZM27.7334 138.785C23.6307 137.235 20.1442 135.192 17.2585 132.667L15.9415 134.173C19.0291 136.874 22.7293 139.032 27.0266 140.655L27.7334 138.785ZM17.2715 132.679C14.3706 130.05 12.0658 127.065 10.3496 123.723L8.57043 124.637C10.4008 128.201 12.8561 131.377 15.9285 134.161L17.2715 132.679ZM10.3637 123.752C8.73536 120.314 7.78812 116.748 7.51733 113.047L5.52267 113.193C5.81188 117.146 6.82464 120.952 8.55626 124.608L10.3637 123.752ZM6.71186 114.101L25.3319 110.461L24.9481 108.499L6.32814 112.139L6.71186 114.101ZM24.1408 109.52C24.3364 114.409 26.0091 118.483 29.1929 121.667L30.6071 120.253C27.8176 117.463 26.317 113.884 26.1392 109.44L24.1408 109.52ZM29.2039 121.678C32.4916 124.866 36.6711 126.44 41.66 126.44V124.44C37.1289 124.44 33.4684 123.027 30.5961 120.242L29.2039 121.678ZM41.66 126.44C46.6944 126.44 50.752 125.081 53.6946 122.239L52.3054 120.801C49.8347 123.186 46.3323 124.44 41.66 124.44V126.44ZM53.7071 122.227C56.6012 119.333 58.06 115.812 58.06 111.72H56.06C56.06 115.281 54.8121 118.294 52.2929 120.813L53.7071 122.227ZM58.06 111.72C58.06 107.188 56.5697 103.57 53.5002 101.012L52.2198 102.548C54.7503 104.657 56.06 107.665 56.06 111.72H58.06ZM53.5129 101.023C50.586 98.4993 46.7897 97.28 42.22 97.28V99.28C46.4237 99.28 49.7207 100.394 52.2071 102.537L53.5129 101.023ZM42.22 97.28C40.219 97.28 38.5098 97.4223 37.1105 97.7222L37.5295 99.6778C38.7435 99.4177 40.301 99.28 42.22 99.28V97.28ZM37.0951 97.7256C35.8475 98.0135 34.688 98.3512 33.6183 98.7402L34.3017 100.62C35.2853 100.262 36.3658 99.9465 37.5449 99.6744L37.0951 97.7256ZM34.804 99.1437L26.264 85.7037L24.576 86.7763L33.116 100.216L34.804 99.1437ZM106.606 107.8L105.623 107.983L105.623 107.987L106.606 107.8ZM110.386 117.74L111.234 117.21L111.228 117.201L111.222 117.192L110.386 117.74ZM115.846 123.2L115.316 124.048L115.329 124.056L115.342 124.064L115.846 123.2ZM132.366 123.2L132.886 124.054L132.899 124.046L132.912 124.038L132.366 123.2ZM137.686 117.74L136.863 117.172L136.85 117.191L136.838 117.21L137.686 117.74ZM141.606 107.8L142.588 107.987L142.589 107.983L141.606 107.8ZM141.606 81.62L140.623 81.8029L140.623 81.8071L141.606 81.62ZM137.686 71.54L136.838 72.07L136.85 72.0891L136.863 72.1077L137.686 71.54ZM132.366 66.22L131.82 67.0576L131.833 67.0661L131.846 67.0742L132.366 66.22ZM115.846 66.22L116.35 67.0838L116.363 67.0761L116.376 67.068L115.846 66.22ZM110.386 71.54L111.222 72.088L111.228 72.0791L111.234 72.07L110.386 71.54ZM106.606 81.62L107.588 81.8071L107.589 81.8029L106.606 81.62ZM87.8458 77.7L88.8251 77.9026L88.8257 77.8993L87.8458 77.7ZM94.1458 62.3L93.3137 61.7452L93.3062 61.7567L94.1458 62.3ZM106.046 51.38L106.538 52.2503L106.545 52.2468L106.551 52.2432L106.046 51.38ZM142.026 51.38L141.514 52.2389L141.523 52.2447L141.533 52.2503L142.026 51.38ZM153.926 62.3L154.765 61.7567L154.758 61.7453L153.926 62.3ZM160.226 77.7L159.246 77.8993L159.248 77.909L159.25 77.9187L160.226 77.7ZM160.226 111.72L159.249 111.505L159.247 111.517L160.226 111.72ZM153.926 126.98L154.758 127.535L154.765 127.523L153.926 126.98ZM142.026 138.04L142.526 138.906L142.531 138.903L142.026 138.04ZM106.046 138.04L105.541 138.903L105.547 138.907L105.553 138.91L106.046 138.04ZM94.1458 126.98L93.3061 127.523L93.3137 127.535L94.1458 126.98ZM87.8458 111.72L86.8658 111.919L86.8665 111.923L87.8458 111.72ZM104.486 94.64C104.486 99.4515 104.863 103.9 105.623 107.983L107.589 107.617C106.855 103.673 106.486 99.3485 106.486 94.64H104.486ZM105.623 107.987C106.389 112.007 107.69 115.449 109.549 118.288L111.222 117.192C109.535 114.617 108.316 111.433 107.588 107.613L105.623 107.987ZM109.538 118.27C111.018 120.639 112.947 122.568 115.316 124.048L116.376 122.352C114.265 121.032 112.553 119.321 111.234 117.21L109.538 118.27ZM115.342 124.064C117.77 125.48 120.707 126.16 124.106 126.16V124.16C120.971 124.16 118.402 123.533 116.35 122.336L115.342 124.064ZM124.106 126.16C127.589 126.16 130.538 125.483 132.886 124.054L131.846 122.346C129.9 123.53 127.342 124.16 124.106 124.16V126.16ZM132.912 124.038C135.184 122.556 137.059 120.629 138.534 118.27L136.838 117.21C135.512 119.331 133.841 121.044 131.82 122.362L132.912 124.038ZM138.509 118.308C140.47 115.465 141.821 112.015 142.588 107.987L140.623 107.613C139.897 111.425 138.635 114.602 136.863 117.172L138.509 118.308ZM142.589 107.983C143.348 103.9 143.726 99.4515 143.726 94.64H141.726C141.726 99.3485 141.356 103.673 140.623 107.617L142.589 107.983ZM143.726 94.64C143.726 89.8288 143.349 85.425 142.588 81.4329L140.623 81.8071C141.356 85.655 141.726 89.9312 141.726 94.64H143.726ZM142.589 81.4371C141.823 77.3181 140.472 73.8189 138.509 70.9723L136.863 72.1077C138.633 74.6744 139.896 77.8952 140.623 81.8029L142.589 81.4371ZM138.534 71.01C137.056 68.6448 135.172 66.7577 132.886 65.3658L131.846 67.0742C133.853 68.2957 135.516 69.9552 136.838 72.07L138.534 71.01ZM132.912 65.3824C130.559 63.8481 127.6 63.12 124.106 63.12V65.12C127.331 65.12 129.879 65.7919 131.82 67.0576L132.912 65.3824ZM124.106 63.12C120.696 63.12 117.749 63.8515 115.316 65.372L116.376 67.068C118.423 65.7884 120.982 65.12 124.106 65.12V63.12ZM115.342 65.3562C112.959 66.7462 111.022 68.6351 109.538 71.01L111.234 72.07C112.549 69.9649 114.252 68.3072 116.35 67.0838L115.342 65.3562ZM109.549 70.992C107.687 73.8343 106.387 77.3263 105.623 81.4371L107.589 81.8029C108.317 77.887 109.538 74.659 111.222 72.088L109.549 70.992ZM105.623 81.4329C104.863 85.425 104.486 89.8288 104.486 94.64H106.486C106.486 89.9312 106.855 85.655 107.588 81.8071L105.623 81.4329ZM87.1658 94.64C87.1658 88.8238 87.7197 83.2452 88.825 77.9026L86.8665 77.4974C85.7319 82.9815 85.1658 88.6962 85.1658 94.64H87.1658ZM88.8257 77.8993C89.9206 72.5162 91.9726 67.4993 94.9854 62.8433L93.3062 61.7567C90.159 66.6207 88.011 71.8705 86.8658 77.5007L88.8257 77.8993ZM94.9778 62.8547C97.8728 58.5123 101.72 54.9775 106.538 52.2503L105.553 50.5097C100.478 53.3825 96.3921 57.1277 93.3137 61.7453L94.9778 62.8547ZM106.551 52.2432C111.312 49.4585 117.148 48.04 124.106 48.04V46.04C116.877 46.04 110.673 47.5149 105.541 50.5168L106.551 52.2432ZM124.106 48.04C131.064 48.04 136.85 49.4588 141.514 52.2389L142.538 50.521C137.495 47.5146 131.334 46.04 124.106 46.04V48.04ZM141.533 52.2503C146.351 54.9775 150.199 58.5123 153.094 62.8547L154.758 61.7453C151.679 57.1277 147.594 53.3825 142.518 50.5097L141.533 52.2503ZM153.086 62.8433C156.099 67.4993 158.151 72.5162 159.246 77.8993L161.206 77.5007C160.061 71.8705 157.913 66.6207 154.765 61.7567L153.086 62.8433ZM159.25 77.9187C160.446 83.2561 161.046 88.8292 161.046 94.64H163.046C163.046 88.6908 162.432 82.9706 161.202 77.4813L159.25 77.9187ZM161.046 94.64C161.046 100.451 160.446 106.072 159.249 111.505L161.202 111.935C162.432 106.355 163.046 100.589 163.046 94.64H161.046ZM159.247 111.517C158.152 116.806 156.101 121.778 153.086 126.437L154.765 127.523C157.911 122.662 160.059 117.46 161.205 111.923L159.247 111.517ZM153.094 126.425C150.197 130.771 146.345 134.355 141.521 137.177L142.531 138.903C147.6 135.938 151.682 132.149 154.758 127.535L153.094 126.425ZM141.526 137.174C136.86 139.866 131.07 141.24 124.106 141.24V143.24C131.329 143.24 137.485 141.814 142.526 138.906L141.526 137.174ZM124.106 141.24C117.143 141.24 111.302 139.866 106.538 137.17L105.553 138.91C110.683 141.814 116.882 143.24 124.106 143.24V141.24ZM106.551 137.177C101.726 134.355 97.8749 130.771 94.9778 126.425L93.3137 127.535C96.39 132.149 100.472 135.938 105.541 138.903L106.551 137.177ZM94.9854 126.437C91.9708 121.778 89.9193 116.806 88.825 111.517L86.8665 111.923C88.0122 117.46 90.1607 122.662 93.3062 127.523L94.9854 126.437ZM88.8257 111.521C87.7197 106.083 87.1658 100.456 87.1658 94.64H85.1658C85.1658 100.584 85.7319 106.344 86.8658 111.919L88.8257 111.521ZM193.696 107.8L192.712 107.983L192.713 107.987L193.696 107.8ZM197.476 117.74L198.324 117.21L198.318 117.201L198.312 117.192L197.476 117.74ZM202.936 123.2L202.406 124.048L202.419 124.056L202.432 124.064L202.936 123.2ZM219.456 123.2L219.976 124.054L219.989 124.046L220.002 124.038L219.456 123.2ZM224.776 117.74L223.952 117.172L223.94 117.191L223.928 117.21L224.776 117.74ZM228.696 107.8L229.678 107.987L229.679 107.983L228.696 107.8ZM228.696 81.62L227.712 81.8029L227.713 81.8071L228.696 81.62ZM224.776 71.54L223.928 72.07L223.94 72.0891L223.952 72.1077L224.776 71.54ZM219.456 66.22L218.909 67.0576L218.922 67.0661L218.936 67.0742L219.456 66.22ZM202.936 66.22L203.439 67.0838L203.453 67.0761L203.466 67.068L202.936 66.22ZM197.476 71.54L198.312 72.088L198.318 72.0791L198.324 72.07L197.476 71.54ZM193.696 81.62L194.678 81.8071L194.679 81.8029L193.696 81.62ZM174.936 77.7L175.915 77.9026L175.916 77.8993L174.936 77.7ZM181.236 62.3L180.404 61.7452L180.396 61.7567L181.236 62.3ZM193.136 51.38L193.628 52.2503L193.634 52.2468L193.641 52.2432L193.136 51.38ZM229.116 51.38L228.604 52.2389L228.613 52.2447L228.623 52.2503L229.116 51.38ZM241.016 62.3L241.855 61.7567L241.848 61.7453L241.016 62.3ZM247.316 77.7L246.336 77.8993L246.338 77.909L246.34 77.9187L247.316 77.7ZM247.316 111.72L246.339 111.505L246.336 111.517L247.316 111.72ZM241.016 126.98L241.848 127.535L241.855 127.523L241.016 126.98ZM229.116 138.04L229.615 138.906L229.621 138.903L229.116 138.04ZM193.136 138.04L192.631 138.903L192.637 138.907L192.643 138.91L193.136 138.04ZM181.236 126.98L180.396 127.523L180.404 127.535L181.236 126.98ZM174.936 111.72L173.956 111.919L173.956 111.923L174.936 111.72ZM191.576 94.64C191.576 99.4515 191.953 103.9 192.712 107.983L194.679 107.617C193.945 103.673 193.576 99.3485 193.576 94.64H191.576ZM192.713 107.987C193.479 112.007 194.779 115.449 196.639 118.288L198.312 117.192C196.625 114.617 195.406 111.433 194.678 107.613L192.713 107.987ZM196.628 118.27C198.108 120.639 200.037 122.568 202.406 124.048L203.466 122.352C201.354 121.032 199.643 119.321 198.324 117.21L196.628 118.27ZM202.432 124.064C204.86 125.48 207.797 126.16 211.196 126.16V124.16C208.061 124.16 205.492 123.533 203.439 122.336L202.432 124.064ZM211.196 126.16C214.679 126.16 217.628 125.483 219.976 124.054L218.936 122.346C216.99 123.53 214.432 124.16 211.196 124.16V126.16ZM220.002 124.038C222.274 122.556 224.149 120.629 225.624 118.27L223.928 117.21C222.602 119.331 220.931 121.044 218.909 122.362L220.002 124.038ZM225.599 118.308C227.559 115.465 228.911 112.015 229.678 107.987L227.713 107.613C226.987 111.425 225.725 114.602 223.952 117.172L225.599 118.308ZM229.679 107.983C230.438 103.9 230.816 99.4515 230.816 94.64H228.816C228.816 99.3485 228.446 103.673 227.712 107.617L229.679 107.983ZM230.816 94.64C230.816 89.8288 230.438 85.425 229.678 81.4329L227.713 81.8071C228.446 85.655 228.816 89.9312 228.816 94.64H230.816ZM229.679 81.4371C228.912 77.3181 227.562 73.8189 225.599 70.9723L223.952 72.1077C225.723 74.6744 226.985 77.8952 227.712 81.8029L229.679 81.4371ZM225.624 71.01C224.145 68.6448 222.262 66.7577 219.976 65.3658L218.936 67.0742C220.942 68.2957 222.606 69.9552 223.928 72.07L225.624 71.01ZM220.002 65.3824C217.649 63.8481 214.69 63.12 211.196 63.12V65.12C214.421 65.12 216.969 65.7919 218.909 67.0576L220.002 65.3824ZM211.196 63.12C207.786 63.12 204.838 63.8515 202.406 65.372L203.466 67.068C205.513 65.7884 208.072 65.12 211.196 65.12V63.12ZM202.432 65.3562C200.049 66.7462 198.112 68.6351 196.628 71.01L198.324 72.07C199.639 69.9649 201.342 68.3072 203.439 67.0838L202.432 65.3562ZM196.639 70.992C194.777 73.8343 193.477 77.3263 192.712 81.4371L194.679 81.8029C195.407 77.887 196.628 74.659 198.312 72.088L196.639 70.992ZM192.713 81.4329C191.953 85.425 191.576 89.8288 191.576 94.64H193.576C193.576 89.9312 193.945 85.655 194.678 81.8071L192.713 81.4329ZM174.256 94.64C174.256 88.8238 174.81 83.2452 175.915 77.9026L173.956 77.4974C172.822 82.9815 172.256 88.6962 172.256 94.64H174.256ZM175.916 77.8993C177.01 72.5162 179.062 67.4993 182.075 62.8433L180.396 61.7567C177.249 66.6207 175.101 71.8705 173.956 77.5007L175.916 77.8993ZM182.068 62.8547C184.963 58.5123 188.81 54.9775 193.628 52.2503L192.643 50.5097C187.568 53.3825 183.482 57.1277 180.404 61.7453L182.068 62.8547ZM193.641 52.2432C198.402 49.4585 204.238 48.04 211.196 48.04V46.04C203.967 46.04 197.763 47.5149 192.631 50.5168L193.641 52.2432ZM211.196 48.04C218.154 48.04 223.94 49.4588 228.604 52.2389L229.628 50.521C224.585 47.5146 218.424 46.04 211.196 46.04V48.04ZM228.623 52.2503C233.441 54.9775 237.289 58.5123 240.184 62.8547L241.848 61.7453C238.769 57.1277 234.683 53.3825 229.608 50.5097L228.623 52.2503ZM240.176 62.8433C243.189 67.4993 245.241 72.5162 246.336 77.8993L248.296 77.5007C247.15 71.8705 245.002 66.6207 241.855 61.7567L240.176 62.8433ZM246.34 77.9187C247.536 83.2561 248.136 88.8292 248.136 94.64H250.136C250.136 88.6908 249.522 82.9706 248.291 77.4813L246.34 77.9187ZM248.136 94.64C248.136 100.451 247.536 106.072 246.339 111.505L248.292 111.935C249.522 106.355 250.136 100.589 250.136 94.64H248.136ZM246.336 111.517C245.242 116.806 243.191 121.778 240.176 126.437L241.855 127.523C245.001 122.662 247.149 117.46 248.295 111.923L246.336 111.517ZM240.184 126.425C237.287 130.771 233.435 134.355 228.611 137.177L229.621 138.903C234.69 135.938 238.771 132.149 241.848 127.535L240.184 126.425ZM228.616 137.174C223.95 139.866 218.159 141.24 211.196 141.24V143.24C218.418 143.24 224.575 141.814 229.615 138.906L228.616 137.174ZM211.196 141.24C204.233 141.24 198.392 139.866 193.628 137.17L192.643 138.91C197.773 141.814 203.972 143.24 211.196 143.24V141.24ZM193.641 137.177C188.816 134.355 184.965 130.771 182.068 126.425L180.404 127.535C183.48 132.149 187.562 135.938 192.631 138.903L193.641 137.177ZM182.075 126.437C179.061 121.778 177.009 116.806 175.915 111.517L173.956 111.923C175.102 117.46 177.251 122.662 180.396 127.523L182.075 126.437ZM175.916 111.521C174.81 106.083 174.256 100.456 174.256 94.64H172.256C172.256 100.584 172.822 106.344 173.956 111.919L175.916 111.521ZM289.019 91.14V92.14H290.019V91.14H289.019ZM289.019 63.84V62.84H288.019V63.84H289.019ZM304.699 63.84H305.699V62.84H304.699V63.84ZM304.699 91.14H303.699V92.14H304.699V91.14ZM331.299 91.14H332.299V90.14H331.299V91.14ZM331.299 106.4V107.4H332.299V106.4H331.299ZM304.699 106.4V105.4H303.699V106.4H304.699ZM304.699 133.84V134.84H305.699V133.84H304.699ZM289.019 133.84H288.019V134.84H289.019V133.84ZM289.019 106.4H290.019V105.4H289.019V106.4ZM262.559 106.4H261.559V107.4H262.559V106.4ZM262.559 91.14V90.14H261.559V91.14H262.559ZM290.019 91.14V63.84H288.019V91.14H290.019ZM289.019 64.84H304.699V62.84H289.019V64.84ZM303.699 63.84V91.14H305.699V63.84H303.699ZM304.699 92.14H331.299V90.14H304.699V92.14ZM330.299 91.14V106.4H332.299V91.14H330.299ZM331.299 105.4H304.699V107.4H331.299V105.4ZM303.699 106.4V133.84H305.699V106.4H303.699ZM304.699 132.84H289.019V134.84H304.699V132.84ZM290.019 133.84V106.4H288.019V133.84H290.019ZM289.019 105.4H262.559V107.4H289.019V105.4ZM263.559 106.4V91.14H261.559V106.4H263.559ZM262.559 92.14H289.019V90.14H262.559V92.14Z" fill="#EEEEEE"/>
<path d="M21.42 91.24L45.22 70.8H5.46V54.14H69.72V69.68L46.2 89.28C49.6533 89.4667 52.9667 90.2133 56.14 91.52C59.3133 92.8267 62.1133 94.6933 64.54 97.12C66.9667 99.4533 68.88 102.3 70.28 105.66C71.7733 109.02 72.52 112.8 72.52 117C72.52 120.92 71.7267 124.7 70.14 128.34C68.5533 131.98 66.2667 135.2 63.28 138C60.2933 140.707 56.6533 142.9 52.36 144.58C48.0667 146.26 43.1667 147.1 37.66 147.1C32.34 147.1 27.58 146.307 23.38 144.72C19.18 143.133 15.5867 141.033 12.6 138.42C9.61333 135.713 7.23333 132.633 5.46 129.18C3.78 125.633 2.8 121.947 2.52 118.12L21.14 114.48C21.3267 119.147 22.9133 122.973 25.9 125.96C28.98 128.947 32.9 130.44 37.66 130.44C42.5133 130.44 46.2933 129.133 49 126.52C51.7067 123.813 53.06 120.547 53.06 116.72C53.06 112.427 51.66 109.113 48.86 106.78C46.1533 104.447 42.6067 103.28 38.22 103.28C36.26 103.28 34.6267 103.42 33.32 103.7C32.1067 103.98 30.9867 104.307 29.96 104.68L21.42 91.24ZM101.486 99.64C101.486 104.4 101.859 108.787 102.606 112.8C103.352 116.72 104.612 120.033 106.386 122.74C107.786 124.98 109.606 126.8 111.846 128.2C114.086 129.507 116.839 130.16 120.106 130.16C123.466 130.16 126.219 129.507 128.366 128.2C130.512 126.8 132.286 124.98 133.686 122.74C135.552 120.033 136.859 116.72 137.606 112.8C138.352 108.787 138.726 104.4 138.726 99.64C138.726 94.88 138.352 90.54 137.606 86.62C136.859 82.6067 135.552 79.2467 133.686 76.54C132.286 74.3 130.512 72.5267 128.366 71.22C126.219 69.82 123.466 69.12 120.106 69.12C116.839 69.12 114.086 69.82 111.846 71.22C109.606 72.5267 107.786 74.3 106.386 76.54C104.612 79.2467 103.352 82.6067 102.606 86.62C101.859 90.54 101.486 94.88 101.486 99.64ZM82.1658 99.64C82.1658 93.76 82.7258 88.1133 83.8458 82.7C84.9658 77.1933 87.0658 72.06 90.1458 67.3C93.1324 62.82 97.0991 59.18 102.046 56.38C106.992 53.4867 113.012 52.04 120.106 52.04C127.199 52.04 133.172 53.4867 138.026 56.38C142.972 59.18 146.939 62.82 149.926 67.3C153.006 72.06 155.106 77.1933 156.226 82.7C157.439 88.1133 158.046 93.76 158.046 99.64C158.046 105.52 157.439 111.213 156.226 116.72C155.106 122.133 153.006 127.22 149.926 131.98C146.939 136.46 142.972 140.147 138.026 143.04C133.172 145.84 127.199 147.24 120.106 147.24C113.012 147.24 106.992 145.84 102.046 143.04C97.0991 140.147 93.1324 136.46 90.1458 131.98C87.0658 127.22 84.9658 122.133 83.8458 116.72C82.7258 111.213 82.1658 105.52 82.1658 99.64ZM188.576 99.64C188.576 104.4 188.949 108.787 189.696 112.8C190.442 116.72 191.702 120.033 193.476 122.74C194.876 124.98 196.696 126.8 198.936 128.2C201.176 129.507 203.929 130.16 207.196 130.16C210.556 130.16 213.309 129.507 215.456 128.2C217.602 126.8 219.376 124.98 220.776 122.74C222.642 120.033 223.949 116.72 224.696 112.8C225.442 108.787 225.816 104.4 225.816 99.64C225.816 94.88 225.442 90.54 224.696 86.62C223.949 82.6067 222.642 79.2467 220.776 76.54C219.376 74.3 217.602 72.5267 215.456 71.22C213.309 69.82 210.556 69.12 207.196 69.12C203.929 69.12 201.176 69.82 198.936 71.22C196.696 72.5267 194.876 74.3 193.476 76.54C191.702 79.2467 190.442 82.6067 189.696 86.62C188.949 90.54 188.576 94.88 188.576 99.64ZM169.256 99.64C169.256 93.76 169.816 88.1133 170.936 82.7C172.056 77.1933 174.156 72.06 177.236 67.3C180.222 62.82 184.189 59.18 189.136 56.38C194.082 53.4867 200.102 52.04 207.196 52.04C214.289 52.04 220.262 53.4867 225.116 56.38C230.062 59.18 234.029 62.82 237.016 67.3C240.096 72.06 242.196 77.1933 243.316 82.7C244.529 88.1133 245.136 93.76 245.136 99.64C245.136 105.52 244.529 111.213 243.316 116.72C242.196 122.133 240.096 127.22 237.016 131.98C234.029 136.46 230.062 140.147 225.116 143.04C220.262 145.84 214.289 147.24 207.196 147.24C200.102 147.24 194.082 145.84 189.136 143.04C184.189 140.147 180.222 136.46 177.236 131.98C174.156 127.22 172.056 122.133 170.936 116.72C169.816 111.213 169.256 105.52 169.256 99.64ZM285.019 96.14V68.84H300.699V96.14H327.299V111.4H300.699V138.84H285.019V111.4H258.559V96.14H285.019Z" fill="url(#paint0_linear)"/>
<defs>
<linearGradient id="paint0_linear" x1="88.5" y1="66" x2="287" y2="152" gradientUnits="userSpaceOnUse">
<stop stop-color="#E56F6E"/>
<stop offset="1" stop-color="#677CFC"/>
</linearGradient>
</defs>
</svg>
