<svg width="226" height="157" viewBox="0 0 226 157" fill="none" xmlns="http://www.w3.org/2000/svg">
<rect x="98" y="5" width="128" height="152" rx="12" fill="#F8F8F8" fill-opacity="0.08"/>
<path d="M5.04 71.76L2.63619 72.4468L3.13799 74.2031L4.9637 74.2588L5.04 71.76ZM4.56 69.36L2.06736 69.5517L2.07464 69.6464L2.08907 69.7401L4.56 69.36ZM6.36 56.52L4.04708 55.5711L4.04708 55.5711L6.36 56.52ZM11.88 48.24L10.1122 46.4722L10.1122 46.4722L11.88 48.24ZM44.52 42.36L43.6009 44.6849L43.6099 44.6885L43.619 44.692L44.52 42.36ZM53.4 47.88L51.6624 49.6775L51.6929 49.7069L51.7243 49.7353L53.4 47.88ZM59.04 55.8L61.3441 54.8299L59.04 55.8ZM57 79.08L59.0865 80.4571L59.0928 80.4476L59.0989 80.4381L57 79.08ZM45.84 89.52L47.1388 91.6562L47.1455 91.6521L47.1522 91.6479L45.84 89.52ZM30.84 98.64L29.5412 96.5038L29.523 96.5149L29.505 96.5263L30.84 98.64ZM26.76 101.76L25.0542 99.9324L25.0227 99.9618L24.9922 99.9922L26.76 101.76ZM24.12 105.72L21.8159 104.75L20.3548 108.22H24.12V105.72ZM61.44 105.72H63.94V103.22H61.44V105.72ZM61.44 120V122.5H63.94V120H61.44ZM3.84 120H1.34V122.5H3.84V120ZM4.8 110.28L7.24641 110.795L7.24901 110.782L4.8 110.28ZM7.8 101.4L5.57678 100.257L5.56371 100.282L5.55123 100.308L7.8 101.4ZM13.44 93.6L15.2375 95.3376L15.2517 95.3228L15.2657 95.3079L13.44 93.6ZM22.2 86.76L23.4718 88.9123L23.4833 88.9055L22.2 86.76ZM35.04 79.08L33.7613 76.9318L33.7567 76.9345L35.04 79.08ZM42.12 72.96L40.0399 71.5732L40.0337 71.5825L40.0276 71.5919L42.12 72.96ZM41.28 58.2L39.4115 59.8609L39.4283 59.8799L39.4456 59.8985L41.28 58.2ZM23.16 58.68L21.2445 57.0735L21.2291 57.0919L21.214 57.1106L23.16 58.68ZM20.76 72.24L20.6837 74.7388L24.0776 74.8425L23.1688 71.5709L20.76 72.24ZM7.44381 71.0732C7.32679 70.6636 7.1855 69.9846 7.03093 68.9799L2.08907 69.7401C2.2545 70.8154 2.43321 71.7364 2.63619 72.4468L7.44381 71.0732ZM7.05264 69.1683C6.97713 68.1866 6.94 67.2508 6.94 66.36H1.94C1.94 67.3892 1.98287 68.4533 2.06736 69.5517L7.05264 69.1683ZM6.94 66.36C6.94 63.2388 7.51896 60.2817 8.67292 57.4689L4.04708 55.5711C2.64104 58.9983 1.94 62.6012 1.94 66.36H6.94ZM8.67292 57.4689C9.8264 54.6573 11.4804 52.1752 13.6478 50.0078L10.1122 46.4722C7.47963 49.1048 5.4536 52.1427 4.04708 55.5711L8.67292 57.4689ZM13.6478 50.0078C15.7863 47.8692 18.4569 46.1233 21.7066 44.7939L19.8134 40.1661C16.0231 41.7167 12.7737 43.8108 10.1122 46.4722L13.6478 50.0078ZM21.7066 44.7939C24.8727 43.4986 28.5814 42.82 32.88 42.82V37.82C28.0586 37.82 23.6873 38.5814 19.8134 40.1661L21.7066 44.7939ZM32.88 42.82C36.9373 42.82 40.4982 43.4583 43.6009 44.6849L45.4392 40.0351C41.6618 38.5417 37.4627 37.82 32.88 37.82V42.82ZM43.619 44.692C46.8678 45.9472 49.5322 47.6182 51.6624 49.6775L55.1376 46.0825C52.4678 43.5018 49.2122 41.4928 45.421 40.028L43.619 44.692ZM51.7243 49.7353C53.9362 51.7331 55.5999 54.0722 56.7359 56.7701L61.3441 54.8299C59.9201 51.4478 57.8238 48.5069 55.0757 46.0247L51.7243 49.7353ZM56.7359 56.7701C57.8842 59.4972 58.46 62.3668 58.46 65.4H63.46C63.46 61.7132 62.7558 58.1828 61.3441 54.8299L56.7359 56.7701ZM58.46 65.4C58.46 69.977 57.2692 74.062 54.9011 77.7219L59.0989 80.4381C62.0108 75.938 63.46 70.903 63.46 65.4H58.46ZM54.9135 77.7029C52.5062 81.3503 49.0723 84.5896 44.5278 87.3921L47.1522 91.6479C52.2077 88.5304 56.2138 84.8097 59.0865 80.4571L54.9135 77.7029ZM44.5412 87.3838L29.5412 96.5038L32.1388 100.776L47.1388 91.6562L44.5412 87.3838ZM29.505 96.5263C27.8651 97.562 26.3788 98.6961 25.0542 99.9324L28.4658 103.588C29.5412 102.584 30.7749 101.638 32.175 100.754L29.505 96.5263ZM24.9922 99.9922C23.6341 101.35 22.5761 102.944 21.8159 104.75L26.4241 106.69C26.9439 105.456 27.6459 104.41 28.5278 103.528L24.9922 99.9922ZM24.12 108.22H61.44V103.22H24.12V108.22ZM58.94 105.72V120H63.94V105.72H58.94ZM61.44 117.5H3.84V122.5H61.44V117.5ZM6.34 120C6.34 116.715 6.6456 113.649 7.24637 110.795L2.35363 109.765C1.6744 112.991 1.34 116.405 1.34 120H6.34ZM7.24901 110.782C7.84809 107.862 8.78195 105.1 10.0488 102.492L5.55123 100.308C4.09805 103.3 3.03191 106.458 2.35099 109.778L7.24901 110.782ZM10.0232 102.543C11.3446 99.974 13.0775 97.572 15.2375 95.3376L11.6425 91.8624C9.16252 94.428 7.13537 97.226 5.57678 100.257L10.0232 102.543ZM15.2657 95.3079C17.394 93.0328 20.1164 90.8951 23.4718 88.9123L20.9282 84.6077C17.2436 86.7849 14.126 89.2072 11.6143 91.8921L15.2657 95.3079ZM23.4833 88.9055L36.3233 81.2255L33.7567 76.9345L20.9167 84.6145L23.4833 88.9055ZM36.3187 81.2282C39.8376 79.1337 42.5584 76.8578 44.2124 74.3281L40.0276 71.5919C38.9616 73.2222 36.9625 75.0263 33.7613 76.9318L36.3187 81.2282ZM44.2001 74.3467C45.9274 71.7559 46.78 68.8287 46.78 65.64H41.78C41.78 67.8913 41.1926 69.8441 40.0399 71.5732L44.2001 74.3467ZM46.78 65.64C46.78 62.1755 45.5181 59.0975 43.1144 56.5015L39.4456 59.8985C41.0419 61.6225 41.78 63.5045 41.78 65.64H46.78ZM43.1485 56.5391C40.602 53.6743 36.8878 52.46 32.52 52.46V57.46C35.9922 57.46 38.118 58.4057 39.4115 59.8609L43.1485 56.5391ZM32.52 52.46C27.8479 52.46 23.9283 53.8735 21.2445 57.0735L25.0755 60.2865C26.5517 58.5265 28.8721 57.46 32.52 57.46V52.46ZM21.214 57.1106C18.8012 60.1025 17.66 63.7619 17.66 67.92H22.66C22.66 64.7181 23.5188 62.2175 25.106 60.2494L21.214 57.1106ZM17.66 67.92C17.66 69.5946 17.893 71.2595 18.3512 72.9091L23.1688 71.5709C22.827 70.3405 22.66 69.1254 22.66 67.92H17.66ZM20.8363 69.7412L5.1163 69.2612L4.9637 74.2588L20.6837 74.7388L20.8363 69.7412ZM125.156 57.36L124.171 59.6579L126.655 60.7224L127.524 58.1632L125.156 57.36ZM119.276 55.44L118.649 57.86L118.659 57.8627L118.67 57.8653L119.276 55.44ZM102.956 56.04L102.185 53.6619L102.956 56.04ZM95.0363 60.36L96.6231 62.2918L96.6302 62.286L95.0363 60.36ZM89.3962 67.32L87.1991 66.1273L87.1929 66.1387L87.1868 66.1503L89.3962 67.32ZM86.5163 76.92L84.0372 76.5966L88.5964 78.3067L86.5163 76.92ZM93.3563 71.04L94.5846 73.2174L94.5935 73.2124L94.6024 73.2073L93.3563 71.04ZM115.916 70.08L115.057 72.4278L115.916 70.08ZM124.316 75.36L122.548 77.1278L122.579 77.1582L122.61 77.1876L124.316 75.36ZM129.836 83.64L127.507 84.5489L127.521 84.5836L127.535 84.6179L129.836 83.64ZM129.596 105.48L127.318 104.45L129.596 105.48ZM123.236 114.12L124.89 115.995L123.236 114.12ZM113.636 119.76L112.77 117.415L112.761 117.418L112.753 117.421L113.636 119.76ZM89.6363 119.52L90.5564 117.195L89.6363 119.52ZM79.5563 112.8L77.7414 114.519L77.7528 114.531L77.7644 114.543L79.5563 112.8ZM72.7162 101.64L70.3754 102.518L70.378 102.525L70.3807 102.532L72.7162 101.64ZM73.3163 67.2L75.6598 68.0705L75.6638 68.0597L73.3163 67.2ZM82.0762 52.8L80.2728 51.0687L80.272 51.0694L82.0762 52.8ZM95.7563 43.56L94.8218 41.2412L94.8097 41.2461L95.7563 43.56ZM122.996 41.4L122.374 43.8212L122.382 43.8233L122.39 43.8254L122.996 41.4ZM129.716 43.92L132.084 44.7232L132.732 42.8137L131.003 41.7763L129.716 43.92ZM89.0363 100.2L86.7564 101.226L86.7774 101.272L86.8002 101.318L89.0363 100.2ZM92.0362 104.4L90.2685 106.168L90.3273 106.227L90.39 106.281L92.0362 104.4ZM96.3563 107.04L95.4278 109.361L95.496 109.388L95.5657 109.412L96.3563 107.04ZM106.916 107.04L107.742 109.4L107.774 109.388L107.806 109.376L106.916 107.04ZM111.356 104.4L113.003 106.281L113.035 106.253L113.066 106.224L111.356 104.4ZM114.356 89.4L116.636 88.3741L114.356 89.4ZM106.916 82.8L105.988 85.1212L106.056 85.1485L106.126 85.1717L106.916 82.8ZM96.3563 82.8L97.1468 85.1717L97.1969 85.155L97.2462 85.1362L96.3563 82.8ZM91.9163 85.32L90.27 83.4386L90.2398 83.465L90.2105 83.4924L91.9163 85.32ZM89.0363 89.4L91.3161 90.4259L89.0363 89.4ZM126.141 55.0621C124.312 54.2781 122.22 53.599 119.883 53.0146L118.67 57.8653C120.813 58.401 122.641 59.0019 124.171 59.6579L126.141 55.0621ZM119.904 53.02C117.517 52.4014 114.985 52.1 112.316 52.1V57.1C114.608 57.1 116.715 57.3586 118.649 57.86L119.904 53.02ZM112.316 52.1C108.789 52.1 105.407 52.6169 102.185 53.6619L103.728 58.4181C106.425 57.5431 109.284 57.1 112.316 57.1V52.1ZM102.185 53.6619C98.9349 54.716 96.0137 56.306 93.4423 58.434L96.6302 62.286C98.6988 60.574 101.058 59.284 103.728 58.418L102.185 53.6619ZM93.4494 58.4282C90.9366 60.4923 88.8577 63.072 87.1991 66.1273L91.5934 68.5127C92.9748 65.968 94.6559 63.9077 96.6231 62.2918L93.4494 58.4282ZM87.1868 66.1503C85.5817 69.1821 84.5481 72.6799 84.0372 76.5966L88.9953 77.2433C89.4444 73.8001 90.3308 70.8979 91.6057 68.4897L87.1868 66.1503ZM88.5964 78.3067C89.7518 76.5736 91.6838 74.8538 94.5846 73.2174L92.1279 68.8625C88.7887 70.7462 86.1607 72.9464 84.4361 75.5332L88.5964 78.3067ZM94.6024 73.2073C97.3437 71.6311 100.772 70.78 104.996 70.78V65.78C100.101 65.78 95.7688 66.7689 92.1101 68.8727L94.6024 73.2073ZM104.996 70.78C108.745 70.78 112.089 71.342 115.057 72.4278L116.775 67.7322C113.183 66.418 109.247 65.78 104.996 65.78V70.78ZM115.057 72.4278C118.018 73.5111 120.502 75.0813 122.548 77.1278L126.084 73.5922C123.49 70.9987 120.374 69.0489 116.775 67.7322L115.057 72.4278ZM122.61 77.1876C124.717 79.1537 126.353 81.5921 127.507 84.5489L132.165 82.7311C130.759 79.1279 128.716 76.0463 126.022 73.5324L122.61 77.1876ZM127.535 84.6179C128.746 87.4656 129.376 90.7259 129.376 94.44H134.376C134.376 90.1541 133.647 86.2144 132.137 82.6621L127.535 84.6179ZM129.376 94.44C129.376 98.1151 128.68 101.44 127.318 104.45L131.874 106.51C133.553 102.8 134.376 98.7649 134.376 94.44H129.376ZM127.318 104.45C125.942 107.493 124.032 110.083 121.582 112.245L124.89 115.995C127.88 113.357 130.211 110.187 131.874 106.51L127.318 104.45ZM121.582 112.245C119.112 114.425 116.184 116.153 112.77 117.415L114.503 122.105C118.448 120.647 121.921 118.615 124.89 115.995L121.582 112.245ZM112.753 117.421C109.468 118.662 105.811 119.3 101.756 119.3V124.3C106.341 124.3 110.605 123.578 114.52 122.099L112.753 117.421ZM101.756 119.3C97.8227 119.3 94.0956 118.596 90.5564 117.195L88.7161 121.845C92.8569 123.484 97.2098 124.3 101.756 124.3V119.3ZM90.5564 117.195C87.0447 115.805 83.9818 113.764 81.3481 111.057L77.7644 114.543C80.8907 117.756 84.5478 120.195 88.7161 121.845L90.5564 117.195ZM81.3711 111.081C78.744 108.308 76.629 104.879 75.0518 100.748L70.3807 102.532C72.1635 107.201 74.6085 111.212 77.7414 114.519L81.3711 111.081ZM75.0571 100.762C73.504 96.6206 72.6963 91.7288 72.6963 86.04H67.6963C67.6963 92.1912 68.5685 97.6994 70.3754 102.518L75.0571 100.762ZM72.6963 86.04C72.6963 79.329 73.6988 73.3501 75.6598 68.0705L70.9727 66.3295C68.7737 72.2499 67.6963 78.831 67.6963 86.04H72.6963ZM75.6638 68.0597C77.6384 62.6674 80.3857 58.174 83.8805 54.5306L80.272 51.0694C76.2468 55.266 73.1541 60.3726 70.9687 66.3403L75.6638 68.0597ZM83.8797 54.5313C87.4709 50.7906 91.7365 47.9056 96.7028 45.8739L94.8097 41.2461C89.2161 43.5344 84.3616 46.8094 80.2728 51.0687L83.8797 54.5313ZM96.6907 45.8788C101.723 43.8507 107.282 42.82 113.396 42.82V37.82C106.71 37.82 100.509 38.9493 94.8218 41.2412L96.6907 45.8788ZM113.396 42.82C116.835 42.82 119.82 43.1645 122.374 43.8212L123.619 38.9788C120.573 38.1955 117.157 37.82 113.396 37.82V42.82ZM122.39 43.8254C125.154 44.5164 127.128 45.2827 128.43 46.0637L131.003 41.7763C129.104 40.6373 126.598 39.7236 123.603 38.9746L122.39 43.8254ZM127.349 43.1168L122.789 56.5568L127.524 58.1632L132.084 44.7232L127.349 43.1168ZM85.4563 94.8C85.4563 97.1043 85.8723 99.2612 86.7564 101.226L91.3161 99.1741C90.7602 97.9388 90.4563 96.4957 90.4563 94.8H85.4563ZM86.8002 101.318C87.7138 103.145 88.8684 104.768 90.2685 106.168L93.804 102.632C92.8041 101.632 91.9587 100.455 91.2723 99.082L86.8002 101.318ZM90.39 106.281C91.8855 107.59 93.5689 108.618 95.4278 109.361L97.2847 104.719C95.9436 104.182 94.747 103.45 93.6825 102.519L90.39 106.281ZM95.5657 109.412C97.5105 110.06 99.5381 110.38 101.636 110.38V105.38C100.054 105.38 98.562 105.14 97.1468 104.668L95.5657 109.412ZM101.636 110.38C103.801 110.38 105.844 110.064 107.742 109.4L106.09 104.68C104.788 105.136 103.312 105.38 101.636 105.38V110.38ZM107.806 109.376C109.747 108.637 111.487 107.608 113.003 106.281L109.71 102.519C108.666 103.432 107.445 104.163 106.026 104.704L107.806 109.376ZM113.066 106.224C114.587 104.798 115.781 103.127 116.636 101.226L112.076 99.1741C111.492 100.473 110.686 101.602 109.646 102.576L113.066 106.224ZM116.636 101.226C117.52 99.2612 117.936 97.1043 117.936 94.8H112.936C112.936 96.4957 112.632 97.9388 112.076 99.1741L116.636 101.226ZM117.936 94.8C117.936 92.4957 117.52 90.3388 116.636 88.3741L112.076 90.4259C112.632 91.6612 112.936 93.1043 112.936 94.8H117.936ZM116.636 88.3741C115.774 86.4574 114.561 84.8025 113.003 83.4386L109.71 87.2014C110.711 88.0775 111.499 89.1426 112.076 90.4259L116.636 88.3741ZM113.003 83.4386C111.462 82.0909 109.689 81.0889 107.707 80.4283L106.126 85.1717C107.504 85.6311 108.69 86.3091 109.71 87.2014L113.003 83.4386ZM107.845 80.4788C105.918 79.7079 103.838 79.34 101.636 79.34V84.34C103.274 84.34 104.715 84.6121 105.988 85.1212L107.845 80.4788ZM101.636 79.34C99.4994 79.34 97.4372 79.7129 95.4663 80.4638L97.2462 85.1362C98.6353 84.6071 100.093 84.34 101.636 84.34V79.34ZM95.5657 80.4283C93.584 81.0889 91.8101 82.0909 90.27 83.4386L93.5625 87.2014C94.5824 86.3091 95.7685 85.6311 97.1468 85.1717L95.5657 80.4283ZM90.2105 83.4924C88.7514 84.8541 87.6032 86.4925 86.7564 88.3741L91.3161 90.4259C91.9093 89.1075 92.6811 88.0259 93.622 87.1476L90.2105 83.4924ZM86.7564 88.3741C85.8723 90.3388 85.4563 92.4957 85.4563 94.8H90.4563C90.4563 93.1043 90.7602 91.6612 91.3161 90.4259L86.7564 88.3741ZM164.732 78.12V80.62H167.232V78.12H164.732ZM164.732 54.72V52.22H162.232V54.72H164.732ZM178.172 54.72H180.672V52.22H178.172V54.72ZM178.172 78.12H175.672V80.62H178.172V78.12ZM200.972 78.12H203.472V75.62H200.972V78.12ZM200.972 91.2V93.7H203.472V91.2H200.972ZM178.172 91.2V88.7H175.672V91.2H178.172ZM178.172 114.72V117.22H180.672V114.72H178.172ZM164.732 114.72H162.232V117.22H164.732V114.72ZM164.732 91.2H167.232V88.7H164.732V91.2ZM142.052 91.2H139.552V93.7H142.052V91.2ZM142.052 78.12V75.62H139.552V78.12H142.052ZM167.232 78.12V54.72H162.232V78.12H167.232ZM164.732 57.22H178.172V52.22H164.732V57.22ZM175.672 54.72V78.12H180.672V54.72H175.672ZM178.172 80.62H200.972V75.62H178.172V80.62ZM198.472 78.12V91.2H203.472V78.12H198.472ZM200.972 88.7H178.172V93.7H200.972V88.7ZM175.672 91.2V114.72H180.672V91.2H175.672ZM178.172 112.22H164.732V117.22H178.172V112.22ZM167.232 114.72V91.2H162.232V114.72H167.232ZM164.732 88.7H142.052V93.7H164.732V88.7ZM144.552 91.2V78.12H139.552V91.2H144.552ZM142.052 80.62H164.732V75.62H142.052V80.62Z" fill="url(#paint0_linear)" fill-opacity="0.8"/>
<defs>
<linearGradient id="paint0_linear" x1="-8.13857e-07" y1="-10" x2="103.5" y2="152" gradientUnits="userSpaceOnUse">
<stop offset="0.0646999" stop-color="#677CFC"/>
<stop offset="1" stop-color="#E56F6E"/>
</linearGradient>
</defs>
</svg>
