<svg width="445" height="108" viewBox="0 0 445 108" fill="none" xmlns="http://www.w3.org/2000/svg">
<path d="M52.888 107.16C45.784 107.16 39.064 105.912 32.728 103.416C26.392 100.92 20.824 97.368 16.024 92.76C11.32 88.152 7.576 82.584 4.792 76.056C2.008 69.528 0.616 62.184 0.616 54.024C0.616 45.864 2.008 38.52 4.792 31.992C7.672 25.368 11.512 19.752 16.312 15.144C21.112 10.536 26.632 6.98399 32.872 4.488C39.208 1.992 45.784 0.743995 52.6 0.743995C59.608 0.743995 65.8 1.752 71.176 3.768C76.648 5.688 81.256 8.27999 85 11.544C88.84 14.712 91.912 18.312 94.216 22.344C96.616 26.376 98.344 30.456 99.4 34.584L80.68 40.488C80.104 38.088 79.144 35.64 77.8 33.144C76.456 30.648 74.632 28.44 72.328 26.52C70.12 24.6 67.384 23.016 64.12 21.768C60.856 20.52 57.016 19.896 52.6 19.896C48.76 19.896 44.968 20.616 41.224 22.056C37.48 23.4 34.12 25.464 31.144 28.248C28.168 31.032 25.768 34.584 23.944 38.904C22.12 43.224 21.208 48.264 21.208 54.024C21.208 59.496 22.072 64.344 23.8 68.568C25.624 72.696 27.976 76.2 30.856 79.08C33.832 81.864 37.192 84.024 40.936 85.56C44.776 87 48.76 87.72 52.888 87.72C57.208 87.72 61 87.096 64.264 85.848C67.624 84.504 70.456 82.824 72.76 80.808C75.064 78.792 76.936 76.584 78.376 74.184C79.816 71.688 80.872 69.24 81.544 66.84L100.12 72.456C99.16 76.392 97.48 80.424 95.08 84.552C92.776 88.584 89.656 92.28 85.72 95.64C81.88 99 77.224 101.784 71.752 103.992C66.376 106.104 60.088 107.16 52.888 107.16ZM157.127 53.16C155.207 52.776 153.287 52.584 151.367 52.584C148.871 52.584 146.519 52.92 144.311 53.592C142.103 54.264 140.183 55.368 138.551 56.904C136.919 58.44 135.575 60.504 134.519 63.096C133.559 65.592 133.079 68.76 133.079 72.6V105H113.927V34.152H132.503V44.664C133.559 42.36 134.903 40.488 136.535 39.048C138.263 37.512 140.039 36.36 141.863 35.592C143.783 34.824 145.655 34.296 147.479 34.008C149.399 33.72 151.127 33.576 152.663 33.576C153.431 33.576 154.151 33.624 154.823 33.72C155.591 33.72 156.359 33.768 157.127 33.864V53.16ZM215.544 61.512C215.448 59.784 215.064 58.104 214.392 56.472C213.816 54.744 212.856 53.256 211.512 52.008C210.264 50.664 208.632 49.608 206.616 48.84C204.696 47.976 202.392 47.544 199.704 47.544C197.208 47.544 195 47.976 193.08 48.84C191.16 49.704 189.528 50.808 188.184 52.152C186.84 53.496 185.784 54.984 185.016 56.616C184.344 58.248 183.96 59.88 183.864 61.512H215.544ZM233.4 84.696C232.536 87.768 231.144 90.696 229.224 93.48C227.4 96.168 225.144 98.52 222.456 100.536C219.768 102.552 216.6 104.136 212.952 105.288C209.4 106.536 205.464 107.16 201.144 107.16C196.248 107.16 191.592 106.344 187.176 104.712C182.76 102.984 178.872 100.488 175.512 97.224C172.152 93.96 169.464 89.976 167.448 85.272C165.528 80.568 164.568 75.24 164.568 69.288C164.568 63.624 165.528 58.488 167.448 53.88C169.368 49.272 171.912 45.384 175.08 42.216C178.344 38.952 182.088 36.456 186.312 34.728C190.536 32.904 194.904 31.992 199.416 31.992C210.456 31.992 219.048 35.256 225.192 41.784C231.336 48.312 234.408 57.288 234.408 68.712C234.408 70.056 234.36 71.352 234.264 72.6C234.168 73.752 234.12 74.424 234.12 74.616H183.432C183.528 76.92 184.056 79.08 185.016 81.096C186.072 83.016 187.368 84.696 188.904 86.136C190.536 87.576 192.408 88.728 194.52 89.592C196.632 90.36 198.888 90.744 201.288 90.744C205.8 90.744 209.304 89.736 211.8 87.72C214.392 85.704 216.264 83.112 217.416 79.944L233.4 84.696ZM245.17 85.704C245.17 82.536 245.698 79.752 246.754 77.352C247.906 74.856 249.442 72.696 251.362 70.872C253.282 69.048 255.49 67.608 257.986 66.552C260.578 65.496 263.362 64.728 266.338 64.248L283.762 61.656C285.778 61.368 287.17 60.792 287.938 59.928C288.706 58.968 289.09 57.864 289.09 56.616C289.09 54.12 288.082 51.96 286.066 50.136C284.146 48.312 281.17 47.4 277.138 47.4C272.914 47.4 269.65 48.552 267.346 50.856C265.138 53.16 263.89 55.848 263.602 58.92L246.61 55.32C246.898 52.536 247.762 49.752 249.202 46.968C250.642 44.184 252.61 41.688 255.106 39.48C257.602 37.272 260.674 35.496 264.322 34.152C267.97 32.712 272.194 31.992 276.994 31.992C282.562 31.992 287.314 32.76 291.25 34.296C295.186 35.736 298.354 37.704 300.754 40.2C303.25 42.6 305.026 45.432 306.082 48.696C307.234 51.96 307.81 55.368 307.81 58.92V93.768C307.81 95.688 307.906 97.752 308.098 99.96C308.29 102.072 308.482 103.752 308.674 105H291.106C290.914 104.04 290.722 102.744 290.53 101.112C290.434 99.384 290.386 97.848 290.386 96.504C288.562 99.288 285.922 101.736 282.466 103.848C279.106 105.96 274.786 107.016 269.506 107.016C265.762 107.016 262.354 106.392 259.282 105.144C256.306 103.992 253.762 102.456 251.65 100.536C249.538 98.52 247.906 96.264 246.754 93.768C245.698 91.176 245.17 88.488 245.17 85.704ZM273.538 92.76C275.554 92.76 277.474 92.52 279.298 92.04C281.218 91.464 282.898 90.552 284.338 89.304C285.778 87.96 286.93 86.28 287.794 84.264C288.658 82.152 289.09 79.512 289.09 76.344V73.176L273.106 75.624C270.61 76.008 268.498 76.92 266.77 78.36C265.138 79.704 264.322 81.768 264.322 84.552C264.322 86.664 265.09 88.584 266.626 90.312C268.162 91.944 270.466 92.76 273.538 92.76ZM350.309 34.152H364.565V51.144H350.309V80.808C350.309 83.88 350.981 86.04 352.325 87.288C353.765 88.44 355.877 89.016 358.661 89.016C359.813 89.016 360.965 88.968 362.117 88.872C363.269 88.776 364.085 88.632 364.565 88.44V104.28C363.701 104.664 362.357 105.048 360.533 105.432C358.805 105.816 356.549 106.008 353.765 106.008C346.853 106.008 341.381 104.088 337.349 100.248C333.317 96.408 331.301 91.032 331.301 84.12V51.144H318.485V34.152H322.085C325.829 34.152 328.565 33.096 330.293 30.984C332.117 28.776 333.029 26.088 333.029 22.92V12.984H350.309V34.152ZM425.778 61.512C425.682 59.784 425.298 58.104 424.626 56.472C424.05 54.744 423.09 53.256 421.746 52.008C420.498 50.664 418.866 49.608 416.85 48.84C414.93 47.976 412.626 47.544 409.938 47.544C407.442 47.544 405.234 47.976 403.314 48.84C401.394 49.704 399.762 50.808 398.418 52.152C397.074 53.496 396.018 54.984 395.25 56.616C394.578 58.248 394.194 59.88 394.098 61.512H425.778ZM443.634 84.696C442.77 87.768 441.378 90.696 439.458 93.48C437.634 96.168 435.378 98.52 432.69 100.536C430.002 102.552 426.834 104.136 423.186 105.288C419.634 106.536 415.698 107.16 411.378 107.16C406.482 107.16 401.826 106.344 397.41 104.712C392.994 102.984 389.106 100.488 385.746 97.224C382.386 93.96 379.698 89.976 377.682 85.272C375.762 80.568 374.802 75.24 374.802 69.288C374.802 63.624 375.762 58.488 377.682 53.88C379.602 49.272 382.146 45.384 385.314 42.216C388.578 38.952 392.322 36.456 396.546 34.728C400.77 32.904 405.138 31.992 409.65 31.992C420.69 31.992 429.282 35.256 435.426 41.784C441.57 48.312 444.642 57.288 444.642 68.712C444.642 70.056 444.594 71.352 444.498 72.6C444.402 73.752 444.354 74.424 444.354 74.616H393.666C393.762 76.92 394.29 79.08 395.25 81.096C396.306 83.016 397.602 84.696 399.138 86.136C400.77 87.576 402.642 88.728 404.754 89.592C406.866 90.36 409.122 90.744 411.522 90.744C416.034 90.744 419.538 89.736 422.034 87.72C424.626 85.704 426.498 83.112 427.65 79.944L443.634 84.696Z" fill="url(#paint0_linear)"/>
<defs>
<linearGradient id="paint0_linear" x1="-45.6757" y1="54.1233" x2="512.432" y2="54.1233" gradientUnits="userSpaceOnUse">
<stop stop-color="#677CFC"/>
<stop offset="0.990249" stop-color="#E56F6E"/>
</linearGradient>
</defs>
</svg>
