<svg width="441" height="136" viewBox="0 0 441 136" fill="none" xmlns="http://www.w3.org/2000/svg">
<path d="M36.376 87.568C40.504 87.568 44.44 86.944 48.184 85.696C51.928 84.352 55.192 82.336 57.976 79.648C60.76 76.96 62.968 73.6 64.6 69.568C66.232 65.44 67.048 60.592 67.048 55.024C67.048 49.456 66.232 44.656 64.6 40.624C62.968 36.496 60.76 33.088 57.976 30.4C55.288 27.712 52.072 25.696 48.328 24.352C44.584 23.008 40.648 22.336 36.52 22.336H20.536V87.568H36.376ZM0.664 106V3.90399H37.24C44.536 3.90399 51.256 5.05599 57.4 7.35999C63.544 9.664 68.824 13.024 73.24 17.44C77.752 21.76 81.256 27.088 83.752 33.424C86.344 39.76 87.64 46.96 87.64 55.024C87.64 63.088 86.344 70.288 83.752 76.624C81.256 82.96 77.752 88.288 73.24 92.608C68.728 96.928 63.4 100.24 57.256 102.544C51.112 104.848 44.392 106 37.096 106H0.664ZM149.497 62.512C149.401 60.784 149.017 59.104 148.345 57.472C147.769 55.744 146.809 54.256 145.465 53.008C144.217 51.664 142.585 50.608 140.569 49.84C138.649 48.976 136.345 48.544 133.657 48.544C131.161 48.544 128.953 48.976 127.033 49.84C125.113 50.704 123.481 51.808 122.137 53.152C120.793 54.496 119.737 55.984 118.969 57.616C118.297 59.248 117.913 60.88 117.817 62.512H149.497ZM167.353 85.696C166.489 88.768 165.097 91.696 163.177 94.48C161.353 97.168 159.097 99.52 156.409 101.536C153.721 103.552 150.553 105.136 146.905 106.288C143.353 107.536 139.417 108.16 135.097 108.16C130.201 108.16 125.545 107.344 121.129 105.712C116.713 103.984 112.825 101.488 109.465 98.224C106.105 94.96 103.417 90.976 101.401 86.272C99.481 81.568 98.521 76.24 98.521 70.288C98.521 64.624 99.481 59.488 101.401 54.88C103.321 50.272 105.865 46.384 109.033 43.216C112.297 39.952 116.041 37.456 120.265 35.728C124.489 33.904 128.857 32.992 133.369 32.992C144.409 32.992 153.001 36.256 159.145 42.784C165.289 49.312 168.361 58.288 168.361 69.712C168.361 71.056 168.313 72.352 168.217 73.6C168.121 74.752 168.073 75.424 168.073 75.616H117.385C117.481 77.92 118.009 80.08 118.969 82.096C120.025 84.016 121.321 85.696 122.857 87.136C124.489 88.576 126.361 89.728 128.473 90.592C130.585 91.36 132.841 91.744 135.241 91.744C139.753 91.744 143.257 90.736 145.753 88.72C148.345 86.704 150.217 84.112 151.369 80.944L167.353 85.696ZM193.811 82.672C194.003 85.456 195.155 87.952 197.267 90.16C199.379 92.368 202.547 93.472 206.771 93.472C209.939 93.472 212.291 92.8 213.827 91.456C215.363 90.016 216.131 88.336 216.131 86.416C216.131 84.784 215.555 83.392 214.403 82.24C213.251 80.992 211.283 80.08 208.499 79.504L199.139 77.344C192.227 75.808 187.187 73.168 184.019 69.424C180.851 65.584 179.267 61.168 179.267 56.176C179.267 53.008 179.939 50.032 181.283 47.248C182.627 44.368 184.451 41.92 186.755 39.904C189.155 37.792 191.939 36.112 195.107 34.864C198.371 33.616 201.923 32.992 205.763 32.992C210.755 32.992 214.979 33.712 218.435 35.152C221.891 36.496 224.675 38.224 226.787 40.336C228.995 42.448 230.627 44.704 231.683 47.104C232.739 49.408 233.363 51.52 233.555 53.44L217.571 57.04C217.379 55.984 217.043 54.928 216.563 53.872C216.179 52.72 215.507 51.664 214.547 50.704C213.587 49.744 212.387 48.976 210.947 48.4C209.603 47.824 207.923 47.536 205.907 47.536C203.411 47.536 201.251 48.208 199.427 49.552C197.699 50.896 196.835 52.576 196.835 54.592C196.835 56.32 197.411 57.712 198.563 58.768C199.811 59.824 201.395 60.544 203.315 60.928L213.395 63.088C220.403 64.528 225.635 67.216 229.091 71.152C232.643 75.088 234.419 79.648 234.419 84.832C234.419 87.712 233.843 90.544 232.691 93.328C231.635 96.112 229.955 98.608 227.651 100.816C225.347 103.024 222.467 104.8 219.011 106.144C215.555 107.488 211.523 108.16 206.915 108.16C201.539 108.16 197.027 107.392 193.379 105.856C189.731 104.32 186.755 102.448 184.451 100.24C182.147 98.032 180.419 95.68 179.267 93.184C178.211 90.592 177.587 88.288 177.395 86.272L193.811 82.672ZM249.818 106V35.152H268.97V106H249.818ZM247.514 11.968C247.514 8.608 248.666 5.776 250.97 3.472C253.274 1.16799 256.058 0.0159912 259.322 0.0159912C262.682 0.0159912 265.466 1.16799 267.674 3.472C269.978 5.776 271.13 8.608 271.13 11.968C271.13 15.136 269.978 17.872 267.674 20.176C265.466 22.48 262.682 23.632 259.322 23.632C256.058 23.632 253.274 22.48 250.97 20.176C248.666 17.872 247.514 15.136 247.514 11.968ZM301.714 105.28C302.386 109.216 304.162 112.432 307.042 114.928C309.922 117.424 313.666 118.672 318.274 118.672C324.322 118.672 328.978 117.088 332.242 113.92C335.506 110.848 337.138 105.856 337.138 98.944V93.76C335.698 96.064 333.346 98.176 330.082 100.096C326.818 101.92 322.594 102.832 317.41 102.832C312.706 102.832 308.338 101.968 304.306 100.24C300.274 98.512 296.77 96.112 293.794 93.04C290.914 89.968 288.61 86.368 286.882 82.24C285.25 78.016 284.434 73.408 284.434 68.416C284.434 63.712 285.25 59.296 286.882 55.168C288.514 50.944 290.77 47.248 293.65 44.08C296.53 40.912 299.986 38.416 304.018 36.592C308.05 34.768 312.514 33.856 317.41 33.856C323.074 33.856 327.538 34.864 330.802 36.88C334.066 38.896 336.322 41.104 337.57 43.504V35.152H356.002V98.368C356.002 103.264 355.282 107.92 353.842 112.336C352.498 116.848 350.338 120.784 347.362 124.144C344.386 127.6 340.546 130.336 335.842 132.352C331.138 134.464 325.474 135.52 318.85 135.52C313.954 135.52 309.49 134.8 305.458 133.36C301.522 132.016 298.066 130.144 295.09 127.744C292.114 125.44 289.714 122.704 287.89 119.536C286.066 116.464 284.914 113.248 284.434 109.888L301.714 105.28ZM320.722 86.416C325.618 86.416 329.602 84.784 332.674 81.52C335.842 78.256 337.426 73.888 337.426 68.416C337.426 62.944 335.794 58.624 332.53 55.456C329.266 52.192 325.33 50.56 320.722 50.56C318.322 50.56 316.066 50.992 313.954 51.856C311.938 52.624 310.162 53.824 308.626 55.456C307.09 56.992 305.89 58.864 305.026 61.072C304.162 63.28 303.73 65.728 303.73 68.416C303.73 73.984 305.314 78.4 308.482 81.664C311.65 84.832 315.73 86.416 320.722 86.416ZM394.548 106H375.396V35.152H393.972V43.936C396.18 40.288 399.156 37.6 402.9 35.872C406.74 34.144 410.58 33.28 414.42 33.28C418.836 33.28 422.628 34.048 425.796 35.584C429.06 37.024 431.748 38.992 433.86 41.488C435.972 43.984 437.508 46.96 438.468 50.416C439.524 53.872 440.052 57.52 440.052 61.36V106H420.9V64.672C420.9 60.64 419.844 57.28 417.732 54.592C415.716 51.904 412.404 50.56 407.796 50.56C403.572 50.56 400.308 52 398.004 54.88C395.7 57.664 394.548 61.12 394.548 65.248V106Z" fill="url(#paint0_linear)"/>
<defs>
<linearGradient id="paint0_linear" x1="-52.2121" y1="55.1233" x2="513.256" y2="55.1233" gradientUnits="userSpaceOnUse">
<stop stop-color="#677CFC"/>
<stop offset="0.990249" stop-color="#E56F6E"/>
</linearGradient>
</defs>
</svg>
